<?xml version="1.0" encoding="utf-8"?>
<!-- Generator: Adobe Illustrator 16.0.0, SVG Export Plug-In . SVG Version: 6.00 Build 0)  -->
<!DOCTYPE svg PUBLIC "-//W3C//DTD SVG 1.1//EN" "http://www.w3.org/Graphics/SVG/1.1/DTD/svg11.dtd">
<svg version="1.1" id="Layer_1" xmlns="http://www.w3.org/2000/svg" xmlns:xlink="http://www.w3.org/1999/xlink" x="0px" y="0px"
	 width="700px" height="700px" viewBox="0 0 700 700" enable-background="new 0 0 700 700" xml:space="preserve">
<g id="Layer_1_1_">
	<g>
		<g>
			
				<linearGradient id="SVGID_1_" gradientUnits="userSpaceOnUse" x1="421.96" y1="-15.21" x2="421.96" y2="-155.21" gradientTransform="matrix(1 0 0 -1 -220.96 503.3398)">
				<stop  offset="0" style="stop-color:#000000"/>
				<stop  offset="1" style="stop-color:#000000;stop-opacity:0"/>
			</linearGradient>
			<path fill="url(#SVGID_1_)" d="M134.3,626.8c14.3,0.2,28.4,0.5,42.5,0.9c20.5,0.6,44,0.8,70.4,0.399c20-0.199,41.7-0.8,65.1-1.8
				l19.3-0.899c10,0,16.1-2.7,18.5-8.101c0.4,0.601,0.7,1.2,0.9,1.9l1,47.8H50l44.6-47.3c0.3-0.9,0.9-1.7,1.7-2.4
				C100.9,624.1,113.5,627.3,134.3,626.8L134.3,626.8z"/>
		</g>
		<g>
			<g>
				
					<linearGradient id="SVGID_2_" gradientUnits="userSpaceOnUse" x1="573.417" y1="123.9106" x2="605.7905" y2="120.1437" gradientTransform="matrix(1 0 0 -1 -220.96 503.3398)">
					<stop  offset="0" style="stop-color:#0C3013"/>
					<stop  offset="0.2431" style="stop-color:#081D0C"/>
					<stop  offset="0.2863" style="stop-color:#08210D"/>
					<stop  offset="0.5804" style="stop-color:#125720"/>
					<stop  offset="1" style="stop-color:#000000"/>
				</linearGradient>
				<path fill="url(#SVGID_2_)" d="M352.8,396.8l4.4-33l23.6,1.601c3.4,0.3,5,2.1,4.601,5.5l-1.601,21.6c0.101,1.8-0.8,3.1-2.8,4
					c-1.9,0.8-5.5,1-10.8,0.5C364.4,396.9,358.6,396.8,352.8,396.8z"/>
				
					<linearGradient id="SVGID_3_" gradientUnits="userSpaceOnUse" x1="573.417" y1="123.9106" x2="605.7905" y2="120.1437" gradientTransform="matrix(1 0 0 -1 -220.96 503.3398)">
					<stop  offset="0" style="stop-color:#0C3013"/>
					<stop  offset="0.2431" style="stop-color:#081D0C"/>
					<stop  offset="0.2863" style="stop-color:#08210D"/>
					<stop  offset="0.5804" style="stop-color:#125720"/>
					<stop  offset="1" style="stop-color:#000000"/>
				</linearGradient>
				<path fill="url(#SVGID_3_)" d="M352.8,396.8l4.4-33l23.6,1.601c3.4,0.3,5,2.1,4.601,5.5l-1.601,21.6c0.101,1.8-0.8,3.1-2.8,4
					c-1.9,0.8-5.5,1-10.8,0.5C364.4,396.9,358.6,396.8,352.8,396.8z"/>
				
					<linearGradient id="SVGID_4_" gradientUnits="userSpaceOnUse" x1="270.834" y1="120.0605" x2="304.1088" y2="123.3881" gradientTransform="matrix(1 0 0 -1 -220.96 503.3398)">
					<stop  offset="0" style="stop-color:#0B3714"/>
					<stop  offset="0.1412" style="stop-color:#CBE6A7"/>
					<stop  offset="0.2235" style="stop-color:#7CA290"/>
					<stop  offset="0.2941" style="stop-color:#4B8560"/>
					<stop  offset="0.3882" style="stop-color:#4B8560"/>
					<stop  offset="0.4471" style="stop-color:#4A7E6A"/>
					<stop  offset="0.7529" style="stop-color:#356275"/>
					<stop  offset="0.902" style="stop-color:#84A29E"/>
					<stop  offset="1" style="stop-color:#789796"/>
				</linearGradient>
				<path fill="url(#SVGID_4_)" d="M83.6,363.3l6.1,33.4c-8.5,0.1-17,0.1-25.5,0.3c-5.3,0.5-8.9,0.4-10.8-0.5c-2-0.8-2.9-2.2-2.8-4
					L49.1,371c-0.4-3.4,1.2-5.3,4.6-5.5L83.6,363.3z"/>
				
					<linearGradient id="SVGID_5_" gradientUnits="userSpaceOnUse" x1="270.834" y1="120.0605" x2="304.1088" y2="123.3881" gradientTransform="matrix(1 0 0 -1 -220.96 503.3398)">
					<stop  offset="0" style="stop-color:#0B3714"/>
					<stop  offset="0.1412" style="stop-color:#CBE6A7"/>
					<stop  offset="0.2235" style="stop-color:#7CA290"/>
					<stop  offset="0.2941" style="stop-color:#4B8560"/>
					<stop  offset="0.3882" style="stop-color:#4B8560"/>
					<stop  offset="0.4471" style="stop-color:#4A7E6A"/>
					<stop  offset="0.7529" style="stop-color:#356275"/>
					<stop  offset="0.902" style="stop-color:#84A29E"/>
					<stop  offset="1" style="stop-color:#789796"/>
				</linearGradient>
				<path fill="url(#SVGID_5_)" d="M83.6,363.3l6.1,33.4c-8.5,0.1-17,0.1-25.5,0.3c-5.3,0.5-8.9,0.4-10.8-0.5c-2-0.8-2.9-2.2-2.8-4
					L49.1,371c-0.4-3.4,1.2-5.3,4.6-5.5L83.6,363.3z"/>
				
					<linearGradient id="SVGID_6_" gradientUnits="userSpaceOnUse" x1="305.7651" y1="116.3726" x2="383.9164" y2="130.7654" gradientTransform="matrix(1 0 0 -1 -220.96 503.3398)">
					<stop  offset="0" style="stop-color:#6E9092"/>
					<stop  offset="0.1255" style="stop-color:#839E9B"/>
					<stop  offset="0.4588" style="stop-color:#3D7659"/>
					<stop  offset="0.4902" style="stop-color:#3E765A"/>
					<stop  offset="1" style="stop-color:#598480"/>
				</linearGradient>
				<path fill="url(#SVGID_6_)" d="M163.1,358.7v37.8h-2.8c-1.7,0-3.4,0-5.1,0c-17.8-0.1-35.5-0.1-53.1,0c-1.5,0-3.1,0.1-4.6,0.1
					c-2.6,0-5.1,0-7.6,0L83.8,363.2l46.6-3.2C141.2,359.5,152.2,359.1,163.1,358.7z"/>
				
					<linearGradient id="SVGID_7_" gradientUnits="userSpaceOnUse" x1="305.7651" y1="116.3726" x2="383.9164" y2="130.7654" gradientTransform="matrix(1 0 0 -1 -220.96 503.3398)">
					<stop  offset="0" style="stop-color:#6E9092"/>
					<stop  offset="0.1255" style="stop-color:#839E9B"/>
					<stop  offset="0.4588" style="stop-color:#3D7659"/>
					<stop  offset="0.4902" style="stop-color:#3E765A"/>
					<stop  offset="1" style="stop-color:#598480"/>
				</linearGradient>
				<path fill="url(#SVGID_7_)" d="M163.1,358.7v37.8h-2.8c-1.7,0-3.4,0-5.1,0c-17.8-0.1-35.5-0.1-53.1,0c-1.5,0-3.1,0.1-4.6,0.1
					c-2.6,0-5.1,0-7.6,0L83.8,363.2l46.6-3.2C141.2,359.5,152.2,359.1,163.1,358.7z"/>
				
					<linearGradient id="SVGID_8_" gradientUnits="userSpaceOnUse" x1="493.6533" y1="127.9048" x2="584.5532" y2="117.6788" gradientTransform="matrix(1 0 0 -1 -220.96 503.3398)">
					<stop  offset="0.0078" style="stop-color:#132222"/>
					<stop  offset="0.3059" style="stop-color:#516758"/>
					<stop  offset="0.6275" style="stop-color:#16321B"/>
					<stop  offset="0.8078" style="stop-color:#154126"/>
					<stop  offset="1" style="stop-color:#081F0C"/>
				</linearGradient>
				<path fill="url(#SVGID_8_)" d="M271.9,396.5v-37.8c10.8,0.399,21.6,0.8,32.4,1.5l53,3.6l-4.399,33c-7.2-0.1-14.3-0.1-21.5-0.2
					c-18.9-0.1-38-0.1-57,0C273.4,396.5,272.7,396.5,271.9,396.5z"/>
				
					<linearGradient id="SVGID_9_" gradientUnits="userSpaceOnUse" x1="493.6533" y1="127.9048" x2="584.5532" y2="117.6788" gradientTransform="matrix(1 0 0 -1 -220.96 503.3398)">
					<stop  offset="0.0078" style="stop-color:#132222"/>
					<stop  offset="0.3059" style="stop-color:#516758"/>
					<stop  offset="0.6275" style="stop-color:#16321B"/>
					<stop  offset="0.8078" style="stop-color:#154126"/>
					<stop  offset="1" style="stop-color:#081F0C"/>
				</linearGradient>
				<path fill="url(#SVGID_9_)" d="M271.9,396.5v-37.8c10.8,0.399,21.6,0.8,32.4,1.5l53,3.6l-4.399,33c-7.2-0.1-14.3-0.1-21.5-0.2
					c-18.9-0.1-38-0.1-57,0C273.4,396.5,272.7,396.5,271.9,396.5z"/>
				
					<linearGradient id="SVGID_10_" gradientUnits="userSpaceOnUse" x1="382.7607" y1="125.9399" x2="493.6592" y2="125.9399" gradientTransform="matrix(1 0 0 -1 -220.96 503.3398)">
					<stop  offset="0" style="stop-color:#57837D"/>
					<stop  offset="0.1569" style="stop-color:#35986F"/>
					<stop  offset="0.3333" style="stop-color:#317454"/>
					<stop  offset="0.6745" style="stop-color:#1B3830"/>
					<stop  offset="1" style="stop-color:#122021"/>
				</linearGradient>
				<path fill="url(#SVGID_10_)" d="M271.9,358.7v37.8c-1.6,0-3.3,0-4.9,0c-3.5,0-7,0.1-10.5,0.1c-12,0.101-24.1,0.2-36.2,0.4
					c-0.6,0-1.2,0-1.8,0H218c-1.3,0-2.6,0-3.8,0c-15.6-0.2-31.2-0.3-46.7-0.5h-2.2c-0.7,0-1.5,0-2.2,0v-37.8
					C199.6,357.5,235.8,357.5,271.9,358.7z"/>
				
					<linearGradient id="SVGID_11_" gradientUnits="userSpaceOnUse" x1="382.7607" y1="125.9399" x2="493.6592" y2="125.9399" gradientTransform="matrix(1 0 0 -1 -220.96 503.3398)">
					<stop  offset="0" style="stop-color:#57837D"/>
					<stop  offset="0.1569" style="stop-color:#35986F"/>
					<stop  offset="0.3333" style="stop-color:#317454"/>
					<stop  offset="0.6745" style="stop-color:#1B3830"/>
					<stop  offset="1" style="stop-color:#122021"/>
				</linearGradient>
				<path fill="url(#SVGID_11_)" d="M271.9,358.7v37.8c-1.6,0-3.3,0-4.9,0c-3.5,0-7,0.1-10.5,0.1c-12,0.101-24.1,0.2-36.2,0.4
					c-0.6,0-1.2,0-1.8,0H218c-1.3,0-2.6,0-3.8,0c-15.6-0.2-31.2-0.3-46.7-0.5h-2.2c-0.7,0-1.5,0-2.2,0v-37.8
					C199.6,357.5,235.8,357.5,271.9,358.7z"/>
				
					<linearGradient id="SVGID_12_" gradientUnits="userSpaceOnUse" x1="358.1094" y1="-8.3545" x2="538.1094" y2="-8.3545" gradientTransform="matrix(1 0 0 -1 -220.96 503.3398)">
					<stop  offset="0" style="stop-color:#999999;stop-opacity:0.502"/>
					<stop  offset="0.4941" style="stop-color:#64818C;stop-opacity:0"/>
					<stop  offset="1" style="stop-color:#999999;stop-opacity:0.502"/>
				</linearGradient>
				<path fill="url(#SVGID_12_)" d="M331.3,396.6l-19,228.301c-23.4,0.899-45.1,1.5-65.1,1.8c-26.4,0.3-49.9,0.2-70.4-0.4
					c-14.1-0.399-28.2-0.7-42.5-0.899L102,396.6c17.6-0.1,35.3-0.1,53.1,0c1.7,0,3.4,0,5.1,0h2.8c0.7,0,1.5,0,2.2,0h2.2
					c15.5,0.101,31.1,0.301,46.7,0.5c1.3,0,2.5,0,3.8,0h0.4c0.6,0,1.3,0,1.8,0c12.1-0.199,24.1-0.3,36.2-0.399
					c3.5,0,7-0.101,10.5-0.101c1.6,0,3.3,0,4.9,0c0.8,0,1.5,0,2.3,0C293.3,396.5,312.3,396.5,331.3,396.6z"/>
				
					<linearGradient id="SVGID_13_" gradientUnits="userSpaceOnUse" x1="266.9175" y1="-14.7803" x2="335.2163" y2="-5.9207" gradientTransform="matrix(1 0 0 -1 -220.96 503.3398)">
					<stop  offset="0" style="stop-color:#839E9B"/>
					<stop  offset="0.4078" style="stop-color:#6CADAB;stop-opacity:0.4902"/>
					<stop  offset="0.6275" style="stop-color:#6C98A1;stop-opacity:0.451"/>
					<stop  offset="0.698" style="stop-color:#6B7D93;stop-opacity:0.902"/>
					<stop  offset="0.7765" style="stop-color:#64818C;stop-opacity:0.4627"/>
					<stop  offset="1" style="stop-color:#999999;stop-opacity:0.502"/>
				</linearGradient>
				<path fill="url(#SVGID_13_)" d="M64.3,397c8.5-0.1,17-0.2,25.5-0.3c2.5,0,5.1,0,7.6,0c1.6,0,3.1,0,4.6-0.101l32.3,228.7v0.101
					c-24.5,0.6-37.7-4-39.7-13.601L64.3,397z"/>
				
					<linearGradient id="SVGID_14_" gradientUnits="userSpaceOnUse" x1="549.0889" y1="-6.5664" x2="581.9888" y2="-9.0659" gradientTransform="matrix(1 0 0 -1 -220.96 503.3398)">
					<stop  offset="0" style="stop-color:#999999;stop-opacity:0.502"/>
					<stop  offset="0.3216" style="stop-color:#6C98A1;stop-opacity:0.451"/>
					<stop  offset="0.6118" style="stop-color:#6B7D93;stop-opacity:0.902"/>
					<stop  offset="0.7765" style="stop-color:#64818C;stop-opacity:0.4627"/>
					<stop  offset="1" style="stop-color:#5B8783;stop-opacity:0.302"/>
				</linearGradient>
				<path fill="url(#SVGID_14_)" d="M352.8,396.8c5.8,0.101,11.601,0.101,17.4,0.2L351,612.5c-1.2,7.6-7.7,11.4-19.5,11.4
					l-19.3,0.899l19-228.3C338.5,396.6,345.6,396.7,352.8,396.8z"/>
			</g>
		</g>
		<g>
			<g>
				
					<linearGradient id="SVGID_15_" gradientUnits="userSpaceOnUse" x1="279.3174" y1="505.3096" x2="547.4142" y2="38.2828" gradientTransform="matrix(1 0 0 -1 -220.96 503.3398)">
					<stop  offset="0" style="stop-color:#FFFFFF"/>
					<stop  offset="1" style="stop-color:#FFFFFF;stop-opacity:0"/>
				</linearGradient>
				<polygon fill="url(#SVGID_15_)" points="280.9,477.3 280.9,398.8 341,398.8 				"/>
				
					<linearGradient id="SVGID_16_" gradientUnits="userSpaceOnUse" x1="149.2905" y1="435.834" x2="417.3874" y2="-31.1929" gradientTransform="matrix(1 0 0 -1 -220.96 503.3398)">
					<stop  offset="0" style="stop-color:#FFFFFF"/>
					<stop  offset="1" style="stop-color:#FFFFFF;stop-opacity:0"/>
				</linearGradient>
				<path fill="url(#SVGID_16_)" d="M176.4,540.8c-9.7,14.5-19.4,14.5-29.1,0l-0.4-2c-21.3,0.5-36.2,5.9-44.8,16l-4.2,49l-29.5-205
					h188.4v98c-24.7-8.5-51.6-8.5-80.5,0v44H176.4z M145.7,532.6l-1.2-5.8C144.3,529,144.7,530.9,145.7,532.6z"/>
			</g>
		</g>
		<g>
			
				<linearGradient id="SVGID_17_" gradientUnits="userSpaceOnUse" x1="438.21" y1="127.79" x2="438.21" y2="91.79" gradientTransform="matrix(1 0 0 -1 -220.96 503.3398)">
				<stop  offset="0" style="stop-color:#000000"/>
				<stop  offset="1" style="stop-color:#000000;stop-opacity:0"/>
			</linearGradient>
			<path fill="url(#SVGID_17_)" d="M64.3,396.5c103.3-0.9,205.3-0.7,305.9,0.5l-8.3,48.6H75.3L64.3,396.5z"/>
		</g>
		<g>
			<path fill="#FFFFFF" fill-opacity="0.349" d="M256.5,396.7c3.5,0,7-0.101,10.5-0.101c1.6,0,3.3,0,4.9,0c0.8,0,1.5,0,2.3,0
				c26.3-0.1,52.5,0,78.6,0.2c5.8,0.101,11.601,0.101,17.4,0.2L351,612.5c-1.2,7.6-7.7,11.4-19.5,11.4l-19.3,0.899
				c-23.4,0.9-45.1,1.5-65.1,1.8c-26.4,0.301-49.9,0.2-70.4-0.399c-14.1-0.4-28.2-0.7-42.5-0.9v0.101c-24.5,0.6-37.7-4-39.7-13.601
				L64.3,397c8.5-0.1,17-0.2,25.5-0.3c2.5,0,5.1,0,7.6,0c19.2-0.2,38.4-0.2,57.8-0.101c1.7,0,3.4,0,5.1,0h2.8c0.7,0,1.5,0,2.2,0h2.2
				c15.5,0.101,31.1,0.301,46.7,0.5c1.3,0,2.5,0,3.8,0h0.4c0.6,0,1.3,0,1.8,0C232.4,396.9,244.4,396.8,256.5,396.7z"/>
		</g>
		<g>
			
				<radialGradient id="SVGID_18_" cx="438.21" cy="125.04" r="169.3" gradientTransform="matrix(1 0 0 -1 -220.96 503.3398)" gradientUnits="userSpaceOnUse">
				<stop  offset="0" style="stop-color:#142725"/>
				<stop  offset="1" style="stop-color:#162C28;stop-opacity:0"/>
			</radialGradient>
			<path fill="url(#SVGID_18_)" d="M378.7,365.3c-2.3,0.8-4.8,1.3-7.601,1.3L304.2,362c-10.8-0.6-21.5-1.1-32.3-1.5
				c-36.1-1.2-72.3-1.2-108.8,0c-10.9,0.4-21.9,0.8-32.8,1.5l-76.6,5.3c-0.7,0.101-1.4,0.2-1.9,0.5V365.9
				c0.5-0.2,1.1-0.301,1.8-0.301l76.5-5.3c11-0.6,21.9-1.1,32.9-1.5c36.5-1.2,72.7-1.2,108.8,0c10.8,0.4,21.6,0.8,32.4,1.5
				L378.7,365.3z"/>
		</g>
		
			<radialGradient id="SVGID_19_" cx="571.8984" cy="635.4316" r="47.3136" gradientTransform="matrix(0.9978 0.0656 0.0068 -0.1041 -220.4529 393.4117)" gradientUnits="userSpaceOnUse">
			<stop  offset="0" style="stop-color:#FFFFFF"/>
			<stop  offset="0.2118" style="stop-color:#FFFFFF;stop-opacity:0.498"/>
			<stop  offset="0.4549" style="stop-color:#FFFFFF;stop-opacity:0.2588"/>
			<stop  offset="0.7765" style="stop-color:#FFFFFF;stop-opacity:0.0667"/>
			<stop  offset="1" style="stop-color:#FFFFFF;stop-opacity:0"/>
		</radialGradient>
		<path fill="url(#SVGID_19_)" d="M313.9,360.6l57.2,4v0.2l9.7,0.7c3.101,0.3,4.601,1.8,4.7,4.5c-0.3,0-0.5,0-0.8,0
			c-8.4,0.4-18.5,0.1-30.4-0.7c-11.8-0.8-22-1.899-30.5-3.3c-8.3-1.4-12.3-2.7-12.3-4C311.6,361.4,312.4,361,313.9,360.6z"/>
		
			<radialGradient id="SVGID_20_" cx="330.7725" cy="1748.2979" r="179.4883" gradientTransform="matrix(0.9983 -0.0591 -0.0027 -0.029 -186.1064 431.6567)" gradientUnits="userSpaceOnUse">
			<stop  offset="0" style="stop-color:#FFFFFF"/>
			<stop  offset="0.2118" style="stop-color:#FFFFFF;stop-opacity:0.498"/>
			<stop  offset="0.4549" style="stop-color:#FFFFFF;stop-opacity:0.2588"/>
			<stop  offset="0.7765" style="stop-color:#FFFFFF;stop-opacity:0.0667"/>
			<stop  offset="1" style="stop-color:#FFFFFF;stop-opacity:0"/>
		</radialGradient>
		<path fill="url(#SVGID_20_)" d="M51.9,365.5c0.5-0.1,1.1-0.2,1.8-0.3l76.6-5.3c11-0.601,21.9-1.101,32.9-1.5
			c30.1-1,60.2-1.2,90-0.5c-31.3,2.8-69.1,5.399-113.4,8.1c-33.8,2-64,3.5-90.7,4.6c-0.2-2.5,0.8-4.199,2.8-4.899V365.5L51.9,365.5z
			"/>
		
			<radialGradient id="SVGID_21_" cx="559.666" cy="23.6113" r="36.6029" gradientTransform="matrix(0.9979 -0.0655 -0.0163 -0.2486 -222.6899 662.5216)" gradientUnits="userSpaceOnUse">
			<stop  offset="0" style="stop-color:#FFFFFF"/>
			<stop  offset="0.2118" style="stop-color:#FFFFFF;stop-opacity:0.498"/>
			<stop  offset="0.4549" style="stop-color:#FFFFFF;stop-opacity:0.2588"/>
			<stop  offset="0.7765" style="stop-color:#FFFFFF;stop-opacity:0.0667"/>
			<stop  offset="1" style="stop-color:#FFFFFF;stop-opacity:0"/>
		</radialGradient>
		<path fill="url(#SVGID_21_)" d="M351,612.5c-0.3,2.1-1.1,4-2.3,5.5c-3,3.9-8.7,5.9-17.2,5.8l-19.2,1c-3.4,0.101-6.7,0.3-10,0.4
			c-1.5-0.9-2.2-1.8-2.3-2.9c-0.2-2.399,3.2-4.7,10-6.899c6.8-2.2,15-3.601,24.8-4.2c5.9-0.4,11.3-0.4,16.3-0.101L351,612.5z"/>
		
			<radialGradient id="SVGID_22_" cx="201.5854" cy="1931.668" r="333.4445" gradientTransform="matrix(0.1463 0.9892 0.0382 -0.0057 -10.3059 333.562)" gradientUnits="userSpaceOnUse">
			<stop  offset="0" style="stop-color:#FFFFFF"/>
			<stop  offset="0.2118" style="stop-color:#FFFFFF;stop-opacity:0.498"/>
			<stop  offset="0.4549" style="stop-color:#FFFFFF;stop-opacity:0.2588"/>
			<stop  offset="0.7765" style="stop-color:#FFFFFF;stop-opacity:0.0667"/>
			<stop  offset="1" style="stop-color:#FFFFFF;stop-opacity:0"/>
		</radialGradient>
		<path fill="url(#SVGID_22_)" d="M64.3,397.1h22c6.2,37.7,12.6,78.801,19.2,123.101c5.5,37.2,10.4,72.1,14.8,104.8
			c-15.6-1.3-24.1-5.7-25.6-13.3L64.3,397.1z"/>
		
			<radialGradient id="SVGID_23_" cx="438.2734" cy="1138.5332" r="232.5024" gradientTransform="matrix(-0.0749 0.9972 0.0552 0.0041 315.7001 68.8925)" gradientUnits="userSpaceOnUse">
			<stop  offset="0" style="stop-color:#FFFFFF"/>
			<stop  offset="0.2118" style="stop-color:#FFFFFF;stop-opacity:0.498"/>
			<stop  offset="0.4549" style="stop-color:#FFFFFF;stop-opacity:0.2588"/>
			<stop  offset="0.7765" style="stop-color:#FFFFFF;stop-opacity:0.0667"/>
			<stop  offset="1" style="stop-color:#FFFFFF;stop-opacity:0"/>
		</radialGradient>
		<path fill="url(#SVGID_23_)" d="M343.4,397.1H365c-1.4,33.9-3.7,72-6.9,114.301C355.2,550.6,352,586.2,348.6,618.1
			c-3,3.9-8.7,5.9-17.2,5.801l-5.1,0.3c1.4-34,3.7-72.2,6.9-114.601C336.4,467.9,339.7,430.5,343.4,397.1z"/>
		
			<radialGradient id="SVGID_24_" cx="443.3105" cy="536.9229" r="493.782" gradientTransform="matrix(1 0 0 -0.074 -220.96 666.9094)" gradientUnits="userSpaceOnUse">
			<stop  offset="0" style="stop-color:#8191A0"/>
			<stop  offset="0.2118" style="stop-color:#8291A1;stop-opacity:0.498"/>
			<stop  offset="0.4549" style="stop-color:#8191A0;stop-opacity:0.2588"/>
			<stop  offset="0.7765" style="stop-color:#8492A1;stop-opacity:0.0667"/>
			<stop  offset="1" style="stop-color:#8594A1;stop-opacity:0"/>
		</radialGradient>
		<path fill="url(#SVGID_24_)" d="M352.7,592.9l-1.8,19.6c-1.2,7.6-7.7,11.4-19.5,11.3l-19.2,1c-23.4,0.9-45.1,1.5-65.1,1.8
			c-26.4,0.301-49.9,0.2-70.4-0.399c-14.1-0.4-28.2-0.7-42.5-0.9v0.101c-24.5,0.6-37.7-4-39.7-13.601L92,592.9
			c41.1-0.801,84.5-1.301,130.3-1.301C268,591.7,311.5,592.1,352.7,592.9z"/>
	</g>
</g>
</svg>
