<?xml version="1.0" encoding="utf-8"?>
<!-- Generator: Adobe Illustrator 16.0.0, SVG Export Plug-In . SVG Version: 6.00 Build 0)  -->
<!DOCTYPE svg PUBLIC "-//W3C//DTD SVG 1.1//EN" "http://www.w3.org/Graphics/SVG/1.1/DTD/svg11.dtd">
<svg version="1.1" xmlns="http://www.w3.org/2000/svg" xmlns:xlink="http://www.w3.org/1999/xlink" x="0px" y="0px" width="143.7px"
	 height="143px" viewBox="0 0 143.7 143" enable-background="new 0 0 143.7 143" xml:space="preserve">
<g id="Layer_3">
</g>
<g id="Layer_2">
	<g>
		<radialGradient id="SVGID_1_" cx="72" cy="71.6167" r="71.45" gradientUnits="userSpaceOnUse">
			<stop  offset="0" style="stop-color:#000000"/>
			<stop  offset="0.8627" style="stop-color:#000000"/>
			<stop  offset="0.9216" style="stop-color:#545454"/>
			<stop  offset="0.9843" style="stop-color:#000000"/>
		</radialGradient>
		<path fill-rule="evenodd" clip-rule="evenodd" fill="url(#SVGID_1_)" d="M72,1.1c19.5,0,36.1,6.9,49.8,20.6s20.7,30.4,20.7,49.9
			s-6.9,36.1-20.7,49.8S91.5,142.1,72,142.1s-36.1-6.9-49.9-20.7S1.5,91.1,1.5,71.6s6.9-36.1,20.6-49.9S52.5,1.1,72,1.1z"/>
		
			<linearGradient id="SVGID_2_" gradientUnits="userSpaceOnUse" x1="-84.9248" y1="-233.9204" x2="1.4252" y2="-122.7454" gradientTransform="matrix(0.8515 0 0 0.8515 107.5932 223.4384)">
			<stop  offset="0" style="stop-color:#FEFDE2"/>
			<stop  offset="0.9843" style="stop-color:#FEFEF8"/>
		</linearGradient>
		<path fill-rule="evenodd" clip-rule="evenodd" fill="url(#SVGID_2_)" d="M72,11.6c16.6,0,30.7,5.9,42.4,17.6
			c11.7,11.7,17.6,25.9,17.6,42.4s-5.9,30.7-17.6,42.4c-11.7,11.7-25.9,17.6-42.4,17.6c-16.6,0-30.7-5.9-42.4-17.6S12,88.2,12,71.6
			s5.9-30.7,17.6-42.4C41.3,17.4,55.5,11.6,72,11.6z"/>
		<path fill-rule="evenodd" clip-rule="evenodd" d="M72,65.1c1.8,0,3.3,0.6,4.6,1.9c1.3,1.3,1.9,2.8,1.9,4.6c0,1.8-0.6,3.3-1.9,4.6
			c-1.3,1.3-2.8,1.9-4.6,1.9c-1.8,0-3.3-0.6-4.6-1.9c-1.3-1.3-1.9-2.8-1.9-4.6c0-1.8,0.6-3.3,1.9-4.6C68.7,65.8,70.2,65.1,72,65.1z"
			/>
		<g>
			<path fill-rule="evenodd" clip-rule="evenodd" fill="none" stroke="#000000" stroke-width="2" stroke-miterlimit="3" d="
				M72.1,14.4v0.3v9.6 M24.9,71.5h-0.4h-9.6 M129.3,71.5h-0.3h-9.6 M72.1,118.8v0.4v9.6"/>
		</g>
	</g>
</g>
</svg>
