<?xml version="1.0" encoding="utf-8"?>
<!-- Generator: Adobe Illustrator 16.0.0, SVG Export Plug-In . SVG Version: 6.00 Build 0)  -->
<!DOCTYPE svg PUBLIC "-//W3C//DTD SVG 1.1//EN" "http://www.w3.org/Graphics/SVG/1.1/DTD/svg11.dtd">
<svg version="1.1" xmlns="http://www.w3.org/2000/svg" xmlns:xlink="http://www.w3.org/1999/xlink" x="0px" y="0px" width="257px"
	 height="257px" viewBox="0 0 257 257" enable-background="new 0 0 257 257" xml:space="preserve">
<g id="Layer_1">
</g>
<g id="Layer_2">
	<circle fill="#971A15" cx="131.5" cy="130.2" r="110.3"/>
</g>
<g id="Layer_3">
	<circle fill="#D9302F" cx="131.5" cy="130.2" r="101.4"/>
</g>
<g id="Layer_4">
	<g>
		<path fill="#B21A18" d="M131.5,208.2c-44.8,0-83-28.4-97.6-68.2c4.9,49.6,46.7,88.3,97.6,88.3c50.8,0,92.7-38.7,97.6-88.3
			C214.5,179.8,176.3,208.2,131.5,208.2z"/>
	</g>
	<g>
		<path fill="#EB5959" d="M131.5,33c-39.2,0-60.9,23.9-61,24c-14.4,15.1-12.8,36.9,31.9,10.2c45.6-27.2,112.8,16,126.7,54
			C224.1,71.7,182.3,33,131.5,33z"/>
	</g>
</g>
<g id="Layer_5">
	<g>
		<path fill="#FFFFFE" d="M198,172c1.9-1.9,1.9-5.1,0-7.1l-31.2-31.2c-1.9-1.9-1.9-5.1,0-7.1L198,95.5c1.9-1.9,1.9-5.1,0-7.1
			L172.6,63c-1.9-1.9-5.1-1.9-7.1,0l-31.2,31.2c-1.9,1.9-5.1,1.9-7.1,0L96.1,63c-1.9-1.9-5.1-1.9-7.1,0L63.6,88.4
			c-1.9,1.9-1.9,5.1,0,7.1l31.2,31.2c1.9,1.9,1.9,5.1,0,7.1l-31.2,31.2c-1.9,1.9-1.9,5.1,0,7.1L89,197.4c1.9,1.9,5.1,1.9,7.1,0
			l31.2-31.2c1.9-1.9,5.1-1.9,7.1,0l31.2,31.2c1.9,1.9,5.1,1.9,7.1,0L198,172z"/>
		<path fill="none" stroke="#9B221B" stroke-width="2" stroke-miterlimit="10" d="M198,172c1.9-1.9,1.9-5.1,0-7.1l-31.2-31.2
			c-1.9-1.9-1.9-5.1,0-7.1L198,95.5c1.9-1.9,1.9-5.1,0-7.1L172.6,63c-1.9-1.9-5.1-1.9-7.1,0l-31.2,31.2c-1.9,1.9-5.1,1.9-7.1,0
			L96.1,63c-1.9-1.9-5.1-1.9-7.1,0L63.6,88.4c-1.9,1.9-1.9,5.1,0,7.1l31.2,31.2c1.9,1.9,1.9,5.1,0,7.1l-31.2,31.2
			c-1.9,1.9-1.9,5.1,0,7.1L89,197.4c1.9,1.9,5.1,1.9,7.1,0l31.2-31.2c1.9-1.9,5.1-1.9,7.1,0l31.2,31.2c1.9,1.9,5.1,1.9,7.1,0
			L198,172z"/>
	</g>
</g>
</svg>
