<?xml version="1.0" encoding="utf-8"?>
<!-- Generator: Adobe Illustrator 16.0.0, SVG Export Plug-In . SVG Version: 6.00 Build 0)  -->
<!DOCTYPE svg PUBLIC "-//W3C//DTD SVG 1.1//EN" "http://www.w3.org/Graphics/SVG/1.1/DTD/svg11.dtd">
<svg version="1.1" id="Layer_1" xmlns="http://www.w3.org/2000/svg" xmlns:xlink="http://www.w3.org/1999/xlink" x="0px" y="0px"
	 width="700px" height="700px" viewBox="0 0 700 700" enable-background="new 0 0 700 700" xml:space="preserve">
<g id="Layer_2_1_">
	<rect y="60.5" fill="#F9E8E8" width="700" height="546"/>
</g>
<g id="Layer_1_2_">
	<g id="Layer_2">
		<g>
			<path fill="none" stroke="#000000" stroke-linecap="round" stroke-linejoin="round" stroke-miterlimit="3" d="M674.5,115h-1v24.4
				h1 M674.5,163.8h-1v24h1 M673.5,139.4v24.4H498.3v24h175.2v24.4 M674.5,212.1h-1v24.4h1 M674.5,285.4h-1v24h1 M674.5,261h-1v24.4
				H498.3 M673.5,236.5V261 M673.5,309.4v27.5h1 M674.5,361.2h-1v24.5h1 M673.5,336.9H498.3v24.3h175.2V336.9z M673.5,410.2H498.3
				V434h175.2V410.2z M673.5,434h1 M673.5,385.7v24.5h1 M673.5,458.5H498.3V483h175.2V458.5z M673.5,482.9h1 M673.5,434v24.4h1
				 M673.5,482.9v24.3h1 M673.5,507.2H498.3v24h175.2V507.2z M673.5,531.3h1 M674.5,555.7h-1v0.8 M498.3,531.3v24.4h175.2v-24.4
				 M673.5,115H498.3v24.4h175.2 M498.3,139.4v24.4H340.1v24h158.2v24.4h175.2 M498.3,115H340.1v24.4h158.2 M340.1,139.4v24.4
				 M340.1,236.5h158.2v-24.4H340.1V236.5V261 M340.1,285.4h158.2V261H340.1V285.4v24h158.2v-24 M340.1,309.4H29.8v27.5h310.4v-27.5
				H340.1z M340.1,385.7h158.2v-24.5H340.1V385.7v24.5 M498.3,336.9H340.1v24.3 M673.5,236.5H498.3V261h175.2 M673.5,309.4H498.3
				v27.5 M340.1,187.7v24.4 M29.8,309.4v-24V261v-24.5v-24.4v-24.4v-24v-24.4V115h310.4 M29.8,556.5v-0.8v-24.4v-24V483v-24.5V434
				v-23.9v-24.5v-24.5v-24.3 M498.3,434v24.4H340.1v24.5h158.2v24.3H340.1v24h158.2 M498.3,410.2H340.1V434h158.2 M340.1,434v24.4
				 M498.3,555.7H340.1v0.8 M340.1,531.3v24.4 M340.1,482.9v24.3 M29.8,139.4h310.4 M673.5,385.7H498.3v24.5 M29.8,555.7h310.4
				 M29.8,531.3h310.4 M29.8,507.2h310.4 M29.8,482.9h310.4 M29.8,458.5h310.4 M29.8,434h310.4 M29.8,410.2h310.4 M29.8,385.7h310.4
				 M29.8,361.2h310.4 M29.8,285.4h310.4 M29.8,261h310.4 M29.8,236.5h310.4 M29.8,212.1h310.4 M29.8,187.7h310.4 M29.8,163.8h310.4
				"/>
		</g>
	</g>
	<g id="Layer_1_1_">
		<g>
			<path d="M532.8,148.5c1.8,0.3,3.2,0.9,4.2,2c0.9,0.9,1.3,2,1.3,3.2c0,0.7-0.1,1.4-0.4,2c-0.3,0.6-0.7,1.1-1.1,1.5
				c-0.5,0.4-1,0.8-1.5,1.1c-0.8,0.4-1.5,0.5-2.3,0.5s-1.4-0.1-1.8-0.4c-0.4-0.3-0.6-0.6-0.6-1c0-0.2,0.1-0.3,0.2-0.5
				c0.2-0.1,0.4-0.2,0.6-0.2c0.2,0,0.3,0,0.4,0.1c0.1,0,0.4,0.2,0.7,0.4c0.5,0.3,1,0.5,1.5,0.5c0.8,0,1.5-0.3,2-0.9
				c0.6-0.6,0.9-1.3,0.9-2.2c0-0.8-0.3-1.5-0.8-2.3c-0.5-0.7-1.2-1.3-2.2-1.6c-0.7-0.3-1.7-0.5-3-0.5l2.6-5.3h4.8l-0.8,1.7h-4
				L532.8,148.5z M527.9,148.3c0,0.7-0.2,1.4-0.5,2c-0.5,1.1-1.3,2.2-2.4,3.4c-1.6,1.8-2.7,2.9-3.1,3.3h3.5c0.7,0,1.2,0,1.5-0.1
				c0.3,0,0.6-0.1,0.8-0.3c0.2-0.2,0.4-0.4,0.6-0.7h0.4l-1,2.6h-8v-0.4c2.3-2.2,4-3.9,5-5.3c1-1.4,1.5-2.6,1.5-3.8
				c0-0.9-0.3-1.6-0.8-2.1c-0.5-0.6-1.2-0.8-1.9-0.8s-1.3,0.2-1.8,0.6c-0.5,0.4-0.9,0.9-1.2,1.7h-0.3c0.2-1.2,0.6-2.2,1.3-2.9
				s1.6-1,2.6-1c1.1,0,2,0.4,2.8,1.1C527.5,146.5,527.9,147.3,527.9,148.3z M542.5,146.6l-0.2-0.3l3.3-1.6h0.3v11.5
				c0,0.8,0,1.3,0.1,1.4c0.1,0.2,0.2,0.3,0.4,0.4c0.2,0.1,0.6,0.2,1.3,0.2v0.4h-5.1v-0.4c0.6,0,1-0.1,1.3-0.2
				c0.2-0.1,0.3-0.2,0.4-0.4c0.1-0.2,0.1-0.7,0.1-1.5v-7.3c0-1,0-1.6-0.1-1.9c-0.1-0.2-0.2-0.4-0.3-0.4c-0.1-0.1-0.3-0.2-0.5-0.2
				C543.2,146.3,542.9,146.4,542.5,146.6z M552.5,146.8c-0.5,0.4-0.9,0.9-1.2,1.7H551c0.2-1.2,0.6-2.2,1.3-2.9c0.7-0.7,1.6-1,2.6-1
				c1.1,0,2,0.4,2.8,1.1c0.7,0.7,1.1,1.5,1.1,2.5c0,0.7-0.2,1.4-0.5,2c-0.5,1.1-1.3,2.2-2.4,3.4c-1.6,1.8-2.7,2.9-3.1,3.3h3.5
				c0.7,0,1.2,0,1.5-0.1c0.3,0,0.6-0.1,0.8-0.3c0.2-0.2,0.4-0.4,0.6-0.7h0.4l-1,2.6h-8V158c2.3-2.2,4-3.9,5-5.3
				c1-1.4,1.5-2.6,1.5-3.8c0-0.9-0.3-1.6-0.8-2.1c-0.5-0.6-1.2-0.8-1.9-0.8C553.6,146.2,553,146.4,552.5,146.8z M514.2,145.3
				c-0.7,0-1.3,0.2-1.7,0.6s-0.6,0.9-0.6,1.4c0,0.4,0.1,0.7,0.3,1c0.2,0.4,0.4,0.7,0.8,1l1.6,1.4c0.8-0.7,1.3-1.3,1.5-1.7
				c0.2-0.4,0.4-0.9,0.4-1.4c0-0.7-0.2-1.3-0.6-1.6C515.4,145.5,514.9,145.3,514.2,145.3z M511.5,145.6c0.7-0.7,1.6-1,2.7-1
				c1.1,0,2,0.3,2.6,0.9c0.7,0.6,1,1.3,1,2.1c0,0.5-0.2,1-0.5,1.5s-1.1,1.1-2.3,1.9c1.2,0.9,2,1.6,2.3,2.1c0.5,0.7,0.8,1.4,0.8,2.1
				c0,0.9-0.4,1.8-1.1,2.5c-0.7,0.7-1.7,1-2.8,1c-1.3,0-2.3-0.4-3-1.2c-0.6-0.7-0.9-1.4-0.9-2.1c0-0.6,0.2-1.2,0.6-1.8
				c0.4-0.6,1.1-1.3,2.1-1.9c-1.1-0.9-1.8-1.6-2.1-2.2c-0.3-0.5-0.5-1.1-0.5-1.6C510.5,147,510.8,146.3,511.5,145.6z M512.2,153.6
				c-0.3,0.5-0.4,1.1-0.4,1.8c0,0.9,0.3,1.6,0.8,2.1s1,0.8,1.8,0.8c0.7,0,1.3-0.2,1.8-0.6c0.5-0.4,0.7-0.9,0.7-1.5
				c0-0.5-0.1-0.9-0.4-1.3c-0.5-0.7-1.4-1.6-2.8-2.8C512.9,152.5,512.5,153,512.2,153.6z M513.2,170.5c-0.7,0-1.3,0.2-1.8,0.6
				s-0.9,0.9-1.2,1.7h-0.3c0.2-1.2,0.6-2.2,1.3-2.9c0.7-0.7,1.6-1,2.6-1c1.1,0,2,0.4,2.8,1.1c0.7,0.7,1.1,1.5,1.1,2.5
				c0,0.7-0.2,1.4-0.5,2c-0.5,1.1-1.3,2.2-2.4,3.4c-1.6,1.8-2.7,2.9-3.1,3.3h3.6c0.7,0,1.2,0,1.5-0.1c0.3,0,0.6-0.1,0.8-0.3
				c0.2-0.2,0.4-0.4,0.6-0.7h0.4l-1,2.6h-8v-0.4c2.3-2.2,4-3.9,5-5.3s1.5-2.6,1.5-3.8c0-0.9-0.3-1.6-0.8-2.1
				C514.6,170.8,513.9,170.5,513.2,170.5z M522.5,172.8c1.8,0.3,3.2,0.9,4.2,2c0.9,0.9,1.3,2,1.3,3.2c0,0.7-0.1,1.4-0.4,2
				c-0.3,0.6-0.7,1.1-1.1,1.5c-0.5,0.4-1,0.8-1.5,1c-0.8,0.4-1.5,0.6-2.3,0.6s-1.4-0.1-1.8-0.4c-0.4-0.3-0.6-0.6-0.6-1
				c0-0.2,0.1-0.3,0.2-0.5c0.2-0.1,0.4-0.2,0.6-0.2c0.2,0,0.3,0,0.4,0.1c0.1,0,0.4,0.2,0.7,0.4c0.5,0.3,1,0.5,1.5,0.5
				c0.8,0,1.5-0.3,2-0.8c0.6-0.6,0.9-1.3,0.9-2.2c0-0.8-0.3-1.5-0.8-2.3c-0.5-0.7-1.2-1.3-2.2-1.6c-0.7-0.3-1.7-0.5-3-0.6l2.6-5.3
				h4.8l-0.8,1.7h-4L522.5,172.8z M513.1,196.9c-0.4,0.6-0.7,1.4-0.9,2.4c0.9-0.7,1.9-1,2.8-1s1.7,0.4,2.4,1.1c0.7,0.8,1,1.7,1,2.9
				c0,1.1-0.3,2.2-1,3.1c-0.8,1.1-1.9,1.7-3.3,1.7c-0.9,0-1.7-0.3-2.4-0.9c-1.3-1.2-1.9-2.7-1.9-4.6c0-1.2,0.2-2.4,0.7-3.5
				s1.2-2.1,2.1-2.9c0.9-0.8,1.8-1.4,2.6-1.7s1.6-0.4,2.3-0.4h0.5v0.4c-0.9,0.1-1.6,0.2-2.2,0.5c-0.5,0.3-1.1,0.7-1.6,1.2
				C513.9,195.6,513.4,196.2,513.1,196.9z M524,193c1.1,0,1.9,0.4,2.5,1.1c0.4,0.5,0.7,1.1,0.7,1.7c0,1-0.6,2-1.9,3.1
				c0.8,0.3,1.5,0.8,1.9,1.4c0.4,0.6,0.7,1.3,0.7,2.1c0,1.2-0.4,2.2-1.2,3.1c-1,1.1-2.4,1.7-4.2,1.7c-0.9,0-1.5-0.1-1.8-0.3
				c-0.3-0.2-0.5-0.5-0.5-0.8c0-0.2,0.1-0.3,0.2-0.5c0.2-0.1,0.4-0.2,0.6-0.2s0.3,0,0.5,0c0.1,0,0.3,0.2,0.8,0.4
				c0.4,0.2,0.7,0.3,0.8,0.3c0.2,0.1,0.5,0.1,0.8,0.1c0.7,0,1.3-0.3,1.8-0.8s0.8-1.2,0.8-1.9c0-0.5-0.1-1-0.4-1.5
				c-0.2-0.4-0.3-0.6-0.5-0.8c-0.3-0.3-0.7-0.5-1.2-0.8c-0.5-0.2-1-0.3-1.5-0.3h-0.3v-0.3c0.5-0.1,1.1-0.3,1.6-0.6
				c0.5-0.3,0.9-0.7,1.2-1.1c0.2-0.5,0.3-1,0.3-1.5c0-0.7-0.2-1.3-0.6-1.7c-0.4-0.4-1-0.6-1.6-0.6c-1,0-1.9,0.5-2.6,1.6l-0.3-0.1
				c0.4-0.9,0.8-1.6,1.4-2.1C522.5,193.2,523.2,193,524,193z M554.2,173c-0.4,0.6-0.7,1.4-0.9,2.3c0.9-0.7,1.9-1,2.9-1
				c0.9,0,1.7,0.4,2.4,1.1c0.7,0.8,1,1.7,1,2.9c0,1.1-0.3,2.2-1,3.1c-0.8,1.1-1.9,1.7-3.3,1.7c-0.9,0-1.7-0.3-2.3-1
				c-1.3-1.2-1.9-2.7-1.9-4.6c0-1.2,0.2-2.4,0.7-3.4c0.5-1.1,1.2-2.1,2.1-3c0.9-0.8,1.8-1.4,2.6-1.7c0.8-0.3,1.6-0.5,2.3-0.5h0.5
				v0.4c-0.9,0.1-1.6,0.2-2.1,0.5c-0.5,0.3-1.1,0.7-1.7,1.2C555,171.7,554.5,172.3,554.2,173z M548,171h-4l-0.9,1.8
				c1.8,0.3,3.2,0.9,4.2,2c0.9,0.9,1.3,2,1.3,3.2c0,0.7-0.1,1.4-0.4,2s-0.7,1.1-1.1,1.5c-0.5,0.4-1,0.8-1.5,1
				c-0.8,0.4-1.5,0.6-2.3,0.6s-1.4-0.1-1.8-0.4c-0.4-0.3-0.5-0.6-0.5-1c0-0.2,0.1-0.3,0.2-0.5c0.2-0.1,0.4-0.2,0.6-0.2
				s0.3,0,0.5,0.1c0.1,0,0.3,0.2,0.6,0.4c0.5,0.3,1,0.5,1.5,0.5c0.8,0,1.5-0.3,2.1-0.8c0.6-0.6,0.8-1.3,0.8-2.2
				c0-0.8-0.3-1.5-0.8-2.3c-0.5-0.7-1.2-1.3-2.2-1.6c-0.7-0.3-1.7-0.5-3-0.6l2.6-5.3h4.8L548,171z M532.8,172.8
				c1.8,0.3,3.2,0.9,4.2,2c0.9,0.9,1.3,2,1.3,3.2c0,0.7-0.1,1.4-0.4,2c-0.3,0.6-0.7,1.1-1.1,1.5c-0.5,0.4-1,0.8-1.5,1
				c-0.8,0.4-1.5,0.6-2.3,0.6s-1.4-0.1-1.8-0.4c-0.4-0.3-0.6-0.6-0.6-1c0-0.2,0.1-0.3,0.2-0.5c0.2-0.1,0.4-0.2,0.6-0.2
				c0.2,0,0.3,0,0.4,0.1c0.1,0,0.4,0.2,0.7,0.4c0.5,0.3,1,0.5,1.5,0.5c0.8,0,1.5-0.3,2-0.8c0.6-0.6,0.9-1.3,0.9-2.2
				c0-0.8-0.3-1.5-0.8-2.3c-0.5-0.7-1.2-1.3-2.2-1.6c-0.7-0.3-1.7-0.5-3-0.6l2.6-5.3h4.8l-0.8,1.7h-4L532.8,172.8z M533.5,194.3
				c-0.5,0.5-0.8,1.4-1,2.6c-0.2,1.2-0.3,2.4-0.3,3.5c0,1.9,0.2,3.4,0.7,4.5c0.4,1,0.9,1.5,1.7,1.5c0.3,0,0.7-0.1,1.1-0.4
				c0.4-0.3,0.7-0.9,0.9-1.7c0.3-1.1,0.5-2.8,0.5-4.8c0-1.5-0.2-2.8-0.5-3.9c-0.2-0.8-0.5-1.3-0.9-1.6c-0.3-0.2-0.6-0.3-1-0.3
				C534.3,193.6,533.9,193.9,533.5,194.3z M534.8,193c1,0,2,0.5,2.8,1.6c1,1.3,1.5,3.1,1.5,5.4c0,1.6-0.2,2.9-0.7,4
				c-0.4,1.1-1,1.9-1.7,2.4s-1.4,0.8-2,0.8c-1.3,0-2.4-0.8-3.2-2.3c-0.7-1.3-1.1-2.9-1.1-4.6c0-1.5,0.2-2.9,0.7-4
				c0.5-1.1,1.1-1.9,1.9-2.5C533.5,193.2,534.1,193,534.8,193z M543,196.8c1.8,0.3,3.2,0.9,4.2,2c0.9,0.9,1.3,2,1.3,3.2
				c0,0.7-0.1,1.3-0.4,1.9c-0.3,0.6-0.7,1.1-1.1,1.6c-0.5,0.4-1,0.8-1.5,1c-0.8,0.4-1.5,0.5-2.3,0.5s-1.4-0.1-1.8-0.4
				c-0.4-0.3-0.5-0.6-0.5-0.9c0-0.2,0.1-0.3,0.2-0.5c0.2-0.1,0.4-0.2,0.6-0.2s0.3,0,0.5,0.1c0.1,0,0.3,0.2,0.6,0.4
				c0.5,0.3,1,0.5,1.5,0.5c0.8,0,1.5-0.3,2.1-0.9c0.6-0.6,0.8-1.3,0.8-2.2c0-0.8-0.3-1.6-0.8-2.3c-0.5-0.7-1.2-1.3-2.2-1.7
				c-0.7-0.3-1.7-0.5-3-0.5l2.6-5.3h4.8L548,195h-4L543,196.8z M557.8,179.4c0-1.1-0.2-2.1-0.6-3c-0.5-0.8-1.1-1.3-2-1.3
				c-0.2,0-0.5,0.1-0.8,0.2c-0.3,0.1-0.7,0.3-1.3,0.6c-0.1,0.9-0.1,1.6-0.1,2.2s0.1,1.3,0.3,2.1c0.2,0.7,0.6,1.3,1,1.8
				c0.3,0.3,0.7,0.5,1.2,0.5c0.6,0,1.1-0.3,1.6-0.8S557.8,180.4,557.8,179.4z M553,195.5c0,0.4,0.1,0.7,0.3,1c0.2,0.4,0.4,0.7,0.8,1
				l1.7,1.4c0.8-0.7,1.3-1.3,1.5-1.7c0.2-0.4,0.3-0.9,0.3-1.4c0-0.7-0.2-1.3-0.6-1.6c-0.4-0.4-0.9-0.6-1.6-0.6
				c-0.7,0-1.3,0.2-1.6,0.6C553.2,194.5,553,195,553,195.5z M552.5,194c0.7-0.7,1.6-1,2.7-1c1.1,0,2,0.3,2.7,0.9c0.7,0.6,1,1.3,1,2
				c0,0.5-0.2,1-0.6,1.6c-0.4,0.5-1.1,1.1-2.3,1.8c1.2,0.9,2,1.6,2.4,2.2c0.5,0.7,0.8,1.4,0.8,2.1c0,0.9-0.4,1.8-1.1,2.4
				c-0.7,0.7-1.7,1-2.8,1c-1.3,0-2.3-0.4-3-1.2c-0.6-0.7-0.8-1.4-0.8-2.1c0-0.6,0.2-1.2,0.6-1.8c0.4-0.6,1.1-1.3,2.1-2
				c-1.1-0.9-1.8-1.6-2.1-2.1c-0.3-0.5-0.5-1.1-0.5-1.6C551.5,195.3,551.9,194.6,552.5,194z M557.8,204.4c0-0.5-0.1-0.9-0.4-1.3
				c-0.5-0.7-1.4-1.6-2.9-2.8c-0.6,0.5-1,1-1.3,1.5s-0.4,1.1-0.4,1.8c0,0.9,0.3,1.6,0.8,2.1s1,0.8,1.8,0.8c0.7,0,1.3-0.2,1.8-0.6
				C557.6,205.5,557.8,205,557.8,204.4z M553.3,221.2c1.8,0.3,3.2,0.9,4.2,2c0.9,0.9,1.3,2,1.3,3.2c0,0.7-0.1,1.4-0.4,2
				c-0.3,0.6-0.7,1.1-1.1,1.5c-0.5,0.4-1,0.8-1.5,1.1c-0.8,0.4-1.5,0.5-2.3,0.5s-1.4-0.1-1.8-0.4c-0.4-0.3-0.5-0.6-0.5-1
				c0-0.2,0.1-0.3,0.2-0.5c0.2-0.1,0.4-0.2,0.6-0.2s0.3,0,0.5,0.1c0.1,0,0.3,0.2,0.6,0.4c0.5,0.3,1,0.5,1.5,0.5
				c0.8,0,1.5-0.3,2.1-0.9c0.6-0.6,0.8-1.3,0.8-2.2c0-0.8-0.3-1.5-0.8-2.3c-0.5-0.7-1.2-1.3-2.2-1.6c-0.7-0.3-1.7-0.5-3-0.5l2.6-5.3
				h4.8l-0.8,1.7h-4L553.3,221.2z M527.2,220.1c0,1-0.6,2-1.9,3.1c0.8,0.3,1.5,0.8,1.9,1.4c0.4,0.6,0.7,1.3,0.7,2.1
				c0,1.2-0.4,2.2-1.2,3c-1,1.1-2.4,1.7-4.2,1.7c-0.9,0-1.5-0.1-1.8-0.4c-0.3-0.2-0.5-0.5-0.5-0.8c0-0.2,0.1-0.3,0.2-0.5
				c0.2-0.1,0.4-0.2,0.6-0.2s0.3,0,0.5,0c0.1,0,0.3,0.2,0.8,0.4c0.4,0.2,0.7,0.3,0.8,0.4c0.2,0.1,0.5,0.1,0.8,0.1
				c0.7,0,1.3-0.3,1.8-0.8s0.8-1.2,0.8-1.9c0-0.5-0.1-1.1-0.4-1.6c-0.2-0.4-0.3-0.6-0.5-0.8c-0.3-0.3-0.7-0.5-1.2-0.8
				c-0.5-0.2-1-0.3-1.5-0.3h-0.3v-0.3c0.5-0.1,1.1-0.3,1.6-0.6c0.5-0.3,0.9-0.7,1.2-1.1c0.2-0.5,0.3-0.9,0.3-1.4
				c0-0.7-0.2-1.3-0.6-1.7c-0.4-0.4-1-0.6-1.6-0.6c-1,0-1.9,0.6-2.6,1.7l-0.3-0.2c0.4-0.9,0.8-1.6,1.4-2.1s1.3-0.8,2.2-0.8
				c1.1,0,1.9,0.4,2.5,1.1C527,219,527.2,219.5,527.2,220.1z M532.8,221.2c1.8,0.3,3.2,0.9,4.2,2c0.9,0.9,1.3,2,1.3,3.2
				c0,0.7-0.1,1.4-0.4,2c-0.3,0.6-0.7,1.1-1.1,1.5c-0.5,0.4-1,0.8-1.5,1.1c-0.8,0.4-1.5,0.5-2.3,0.5s-1.4-0.1-1.8-0.4
				c-0.4-0.3-0.6-0.6-0.6-1c0-0.2,0.1-0.3,0.2-0.5c0.2-0.1,0.4-0.2,0.6-0.2c0.2,0,0.3,0,0.4,0.1c0.1,0,0.4,0.2,0.7,0.4
				c0.5,0.3,1,0.5,1.5,0.5c0.8,0,1.5-0.3,2-0.9c0.6-0.6,0.9-1.3,0.9-2.2c0-0.8-0.3-1.5-0.8-2.3c-0.5-0.7-1.2-1.3-2.2-1.6
				c-0.7-0.3-1.7-0.5-3-0.5l2.6-5.3h4.8l-0.8,1.7h-4L532.8,221.2z M545,218.1c-0.5,0-0.9,0.2-1.2,0.6c-0.5,0.5-0.8,1.4-1,2.6
				c-0.2,1.2-0.3,2.4-0.3,3.5c0,1.9,0.2,3.4,0.7,4.6c0.4,1,0.9,1.5,1.7,1.5c0.3,0,0.7-0.1,1.1-0.5c0.4-0.3,0.7-0.9,0.9-1.6
				c0.3-1.1,0.5-2.8,0.5-4.9c0-1.5-0.2-2.8-0.5-3.9c-0.2-0.8-0.5-1.3-0.9-1.6C545.8,218.2,545.4,218.1,545,218.1z M543.2,218
				c0.6-0.4,1.2-0.6,1.8-0.6c1,0,2,0.5,2.8,1.6c1,1.3,1.6,3.1,1.6,5.4c0,1.6-0.2,2.9-0.7,4c-0.4,1.1-1,1.9-1.7,2.4s-1.4,0.8-2,0.8
				c-1.3,0-2.4-0.8-3.2-2.3c-0.7-1.3-1.1-2.9-1.1-4.7c0-1.5,0.2-2.9,0.7-4C541.8,219.5,542.4,218.6,543.2,218z M532.8,243.3
				c-0.4,0.5-0.6,1.3-0.6,2.4c0,1.4,0.3,2.5,0.9,3.3c0.4,0.6,1,0.9,1.6,0.9c0.3,0,0.6-0.1,1-0.2c0.4-0.2,0.8-0.4,1.1-0.6
				c0.1-0.9,0.2-1.5,0.2-2c0-0.7-0.1-1.4-0.3-2.1c-0.2-0.8-0.5-1.4-0.9-1.8c-0.4-0.4-0.9-0.6-1.4-0.6
				C533.8,242.5,533.3,242.8,532.8,243.3z M534.7,241.9c1.1,0,2,0.5,2.8,1.4c1,1.1,1.5,2.5,1.5,4.2c0,1.5-0.4,2.9-1.1,4.3
				c-0.7,1.3-1.8,2.4-3.1,3.2c-1.1,0.7-2.2,1.1-3.5,1.1h-0.5v-0.4c0.9,0,1.7-0.2,2.4-0.6s1.5-1.1,2.2-2c0.7-1,1.2-2,1.5-3.2
				c-1,0.7-2,1-2.8,1c-1,0-1.8-0.4-2.5-1.1c-0.7-0.7-1-1.7-1-2.9c0-1.2,0.3-2.3,1-3.2C532.3,242.4,533.3,241.9,534.7,241.9z
				 M543.6,244c0.9-0.8,1.8-1.4,2.6-1.7c0.8-0.3,1.6-0.4,2.3-0.4h0.5v0.4c-0.9,0.1-1.6,0.2-2.1,0.5c-0.5,0.3-1.1,0.7-1.7,1.2
				c-0.5,0.6-1,1.2-1.3,1.8c-0.4,0.6-0.7,1.4-0.9,2.4c0.9-0.7,1.9-1,2.9-1c0.9,0,1.7,0.4,2.4,1.1c0.7,0.8,1,1.7,1,2.9
				c0,1.1-0.3,2.2-1,3.1c-0.8,1.1-1.9,1.7-3.3,1.7c-0.9,0-1.7-0.3-2.3-1c-1.3-1.2-1.9-2.7-1.9-4.6c0-1.2,0.2-2.4,0.7-3.4
				C542,245.9,542.7,244.9,543.6,244z M553.4,243.3c-0.4,0.5-0.7,1.3-0.7,2.4c0,1.4,0.3,2.5,0.9,3.3c0.4,0.6,1,0.9,1.6,0.9
				c0.3,0,0.7-0.1,1-0.2c0.4-0.2,0.8-0.4,1.1-0.6c0.1-0.9,0.2-1.5,0.2-2c0-0.7-0.1-1.4-0.3-2.1c-0.2-0.8-0.5-1.4-0.9-1.8
				c-0.4-0.4-0.9-0.6-1.4-0.6C554.4,242.5,553.9,242.8,553.4,243.3z M555.2,241.9c1.1,0,2,0.5,2.8,1.4c1,1.1,1.5,2.5,1.5,4.2
				c0,1.5-0.4,2.9-1.1,4.3c-0.7,1.3-1.8,2.4-3.1,3.2c-1.1,0.7-2.2,1.1-3.5,1.1h-0.5v-0.4c0.9,0,1.7-0.2,2.4-0.6s1.4-1.1,2.1-2
				c0.7-1,1.2-2,1.5-3.2c-1,0.7-2,1-2.8,1c-1,0-1.8-0.4-2.5-1.1c-0.7-0.7-1-1.7-1-2.9c0-1.2,0.3-2.3,1-3.2
				C552.8,242.4,553.9,241.9,555.2,241.9z M512,200c-0.1,0.9-0.2,1.6-0.2,2.2c0,0.6,0.1,1.3,0.4,2.1c0.2,0.7,0.6,1.3,1,1.8
				c0.3,0.3,0.7,0.5,1.2,0.5c0.6,0,1.1-0.3,1.6-0.9c0.4-0.5,0.7-1.3,0.7-2.4c0-1.1-0.2-2.1-0.7-2.9c-0.5-0.8-1.1-1.3-2-1.3
				c-0.2,0-0.5,0.1-0.8,0.2C513,199.4,512.6,199.6,512,200z M516.8,217.4v8.9h1.8v1.4h-1.8v3.6h-1.7v-3.6h-5.8v-1.3l6.3-9H516.8
				L516.8,217.4z M515.1,226.3v-6.7l-4.8,6.7H515.1z M510.9,243.5c0.8-1.1,1.9-1.7,3.2-1.7c1.1,0,2.1,0.5,2.9,1.4
				c1,1.1,1.5,2.5,1.5,4.2c0,1.5-0.4,2.9-1.1,4.3c-0.7,1.3-1.8,2.4-3.1,3.2c-1.1,0.7-2.2,1.1-3.5,1.1h-0.5v-0.4
				c0.9,0,1.7-0.2,2.4-0.6s1.5-1.1,2.2-2c0.7-1,1.2-2,1.5-3.2c-1,0.7-2,1-2.8,1c-1,0-1.8-0.4-2.4-1.1c-0.7-0.7-1.1-1.7-1.1-2.9
				C510.1,245.6,510.2,244.5,510.9,243.5z M515.3,243.1c-0.4-0.4-0.9-0.6-1.4-0.6c-0.6,0-1.1,0.3-1.5,0.8c-0.4,0.5-0.6,1.3-0.6,2.4
				c0,1.4,0.3,2.5,0.9,3.3c0.4,0.6,1,0.9,1.6,0.9c0.3,0,0.6-0.1,1-0.2c0.4-0.2,0.8-0.4,1.1-0.6c0.1-0.9,0.2-1.5,0.2-2
				c0-0.7-0.1-1.4-0.3-2.1C516,244.1,515.7,243.5,515.3,243.1z M525.4,252.1h-5.8v-1.3l6.3-9h1.1v8.9h1.8v1.4H527v3.6h-1.6V252.1z
				 M525.4,250.7V244l-4.8,6.7H525.4z M512.2,270c1.8,0.3,3.2,0.9,4.2,2c0.9,0.9,1.3,2,1.3,3.2c0,0.7-0.1,1.3-0.4,1.9
				s-0.7,1.1-1.1,1.6c-0.5,0.4-1,0.8-1.5,1c-0.8,0.4-1.5,0.5-2.4,0.5c-0.8,0-1.4-0.1-1.8-0.4c-0.4-0.3-0.5-0.6-0.5-0.9
				c0-0.2,0.1-0.3,0.2-0.5c0.2-0.1,0.4-0.2,0.6-0.2s0.3,0,0.5,0.1c0.1,0,0.4,0.2,0.7,0.4c0.5,0.3,1,0.5,1.5,0.5c0.8,0,1.5-0.3,2-0.9
				c0.6-0.6,0.9-1.3,0.9-2.2c0-0.8-0.3-1.6-0.8-2.3c-0.5-0.7-1.2-1.3-2.1-1.7c-0.7-0.3-1.7-0.5-3-0.5l2.6-5.3h4.9l-0.8,1.7h-4.1
				L512.2,270z M523.4,270.1c-0.4,0.6-0.7,1.4-0.9,2.4c0.9-0.7,1.9-1,2.8-1c0.9,0,1.7,0.4,2.4,1.1c0.7,0.8,1,1.7,1,2.9
				c0,1.1-0.3,2.2-1,3.1c-0.8,1.1-1.9,1.7-3.3,1.7c-0.9,0-1.7-0.3-2.3-0.9c-1.3-1.2-1.9-2.7-1.9-4.6c0-1.2,0.2-2.4,0.7-3.5
				c0.5-1.1,1.2-2.1,2.1-2.9c0.9-0.8,1.8-1.4,2.6-1.7c0.8-0.3,1.6-0.4,2.3-0.4h0.5v0.4c-0.9,0.1-1.6,0.2-2.2,0.5
				c-0.5,0.3-1.1,0.7-1.6,1.2C524.2,268.9,523.7,269.5,523.4,270.1z M523.6,272.5c-0.3,0.1-0.7,0.3-1.3,0.7
				c-0.1,0.9-0.1,1.6-0.1,2.2s0.1,1.3,0.3,2.1c0.2,0.7,0.6,1.3,1,1.8c0.3,0.3,0.7,0.5,1.2,0.5c0.6,0,1.1-0.3,1.6-0.9
				c0.4-0.5,0.7-1.3,0.7-2.4s-0.2-2.1-0.7-2.9c-0.5-0.8-1.1-1.3-1.9-1.3C524.2,272.4,523.9,272.4,523.6,272.5z M514.8,290.6h0.3
				v11.5c0,0.8,0,1.3,0.1,1.4c0.1,0.2,0.2,0.3,0.4,0.4c0.2,0.1,0.6,0.2,1.3,0.2v0.4h-5.1v-0.4c0.6,0,1-0.1,1.3-0.2
				c0.2-0.1,0.3-0.2,0.3-0.4c0.1-0.2,0.2-0.7,0.2-1.5v-7.3c0-1,0-1.6-0.1-1.9c-0.1-0.2-0.1-0.4-0.3-0.4c-0.1-0.1-0.3-0.2-0.4-0.2
				c-0.3,0-0.6,0.1-1.1,0.3l-0.1-0.3L514.8,290.6z M521.8,291.4c0.6-0.5,1.3-0.8,2.2-0.8c1.1,0,1.9,0.4,2.5,1.1
				c0.4,0.5,0.7,1,0.7,1.6c0,1-0.6,2-1.9,3.1c0.8,0.3,1.5,0.8,1.9,1.4c0.4,0.6,0.7,1.3,0.7,2.1c0,1.2-0.4,2.2-1.2,3
				c-1,1.1-2.4,1.7-4.2,1.7c-0.9,0-1.5-0.1-1.8-0.4c-0.3-0.2-0.5-0.5-0.5-0.8c0-0.2,0.1-0.3,0.2-0.5c0.2-0.1,0.4-0.2,0.6-0.2
				s0.3,0,0.5,0c0.1,0,0.3,0.2,0.8,0.4c0.4,0.2,0.7,0.3,0.8,0.4c0.2,0.1,0.5,0.1,0.8,0.1c0.7,0,1.3-0.3,1.8-0.8s0.8-1.2,0.8-1.9
				c0-0.5-0.1-1.1-0.4-1.6c-0.2-0.4-0.3-0.6-0.5-0.8c-0.3-0.3-0.7-0.5-1.2-0.8c-0.5-0.2-1-0.3-1.5-0.3h-0.3v-0.3
				c0.5-0.1,1.1-0.3,1.6-0.6c0.5-0.3,0.9-0.7,1.2-1.1c0.2-0.5,0.3-0.9,0.3-1.4c0-0.7-0.2-1.3-0.6-1.7c-0.4-0.4-1-0.6-1.6-0.6
				c-1,0-1.9,0.6-2.6,1.7l-0.3-0.2C520.8,292.6,521.3,291.9,521.8,291.4z M546.9,249.3c-0.5-0.8-1.1-1.3-2-1.3
				c-0.2,0-0.5,0.1-0.8,0.2c-0.3,0.1-0.7,0.3-1.3,0.6c-0.1,0.9-0.1,1.6-0.1,2.2s0.1,1.3,0.3,2.1c0.2,0.7,0.6,1.3,1,1.8
				c0.3,0.3,0.7,0.5,1.2,0.5c0.6,0,1.1-0.3,1.6-0.9c0.4-0.5,0.6-1.3,0.6-2.3C547.5,251.1,547.3,250.1,546.9,249.3z M551.2,269.1
				c0.4-0.9,0.8-1.6,1.5-2.1c0.6-0.5,1.3-0.8,2.2-0.8c1.1,0,1.9,0.4,2.5,1.1c0.4,0.5,0.7,1.1,0.7,1.7c0,1-0.6,2-1.8,3.1
				c0.8,0.3,1.5,0.8,1.9,1.4c0.4,0.6,0.7,1.3,0.7,2.1c0,1.2-0.4,2.2-1.2,3.1c-1,1.1-2.4,1.7-4.2,1.7c-0.9,0-1.5-0.1-1.8-0.3
				c-0.3-0.2-0.5-0.5-0.5-0.8c0-0.2,0.1-0.3,0.2-0.5c0.2-0.1,0.4-0.2,0.6-0.2s0.3,0,0.5,0c0.1,0,0.4,0.2,0.8,0.4
				c0.4,0.2,0.7,0.3,0.9,0.3c0.2,0.1,0.5,0.1,0.8,0.1c0.7,0,1.3-0.3,1.8-0.8s0.8-1.2,0.8-1.9c0-0.5-0.1-1-0.4-1.5
				c-0.2-0.4-0.3-0.6-0.5-0.8c-0.3-0.3-0.7-0.5-1.2-0.8c-0.5-0.2-1-0.3-1.5-0.3h-0.3V273c0.5-0.1,1.1-0.3,1.6-0.6
				c0.5-0.3,0.9-0.7,1.2-1.1c0.2-0.5,0.3-1,0.3-1.5c0-0.7-0.2-1.3-0.6-1.7c-0.4-0.4-1-0.6-1.6-0.6c-1,0-1.9,0.5-2.6,1.6H551.2
				L551.2,269.1z M549.2,266.9l-4.5,13.5h-1.1l4.1-12.2h-3.8c-0.7,0-1.3,0.1-1.6,0.3c-0.6,0.3-1,0.8-1.3,1.4l-0.3-0.1l1.3-3.2h7.3
				L549.2,266.9L549.2,266.9L549.2,266.9z M531.7,266.5h7.3v0.4l-4.5,13.5h-1.1l4-12.2h-3.8c-0.7,0-1.3,0.1-1.6,0.3
				c-0.6,0.3-1,0.8-1.3,1.4l-0.3-0.1L531.7,266.5z M533.3,292.8c0.9-0.8,1.8-1.4,2.6-1.7c0.8-0.3,1.6-0.5,2.3-0.5h0.5v0.4
				c-0.9,0.1-1.6,0.2-2.2,0.5c-0.5,0.3-1.1,0.7-1.6,1.2c-0.5,0.6-1,1.2-1.3,1.9c-0.4,0.6-0.7,1.4-0.9,2.4c0.9-0.7,1.9-1,2.8-1
				s1.7,0.4,2.4,1.1c0.7,0.8,1,1.7,1,2.9c0,1.1-0.3,2.2-1,3.1c-0.8,1.1-1.9,1.7-3.3,1.7c-0.9,0-1.7-0.3-2.3-1
				c-1.3-1.2-1.9-2.7-1.9-4.6c0-1.2,0.2-2.4,0.7-3.5C531.7,294.6,532.4,293.7,533.3,292.8z M542.3,292.9c-0.6,0.3-1,0.8-1.3,1.4
				l-0.3-0.1l1.3-3.2h7.3v0.4l-4.5,13.4h-1.1l4.1-12.2H544C543.2,292.6,542.6,292.7,542.3,292.9z M551.2,293.5
				c0.4-0.9,0.8-1.6,1.5-2.1c0.6-0.5,1.3-0.8,2.2-0.8c1.1,0,1.9,0.4,2.5,1.1c0.4,0.5,0.7,1,0.7,1.6c0,1-0.6,2-1.8,3.1
				c0.8,0.3,1.5,0.8,1.9,1.4c0.4,0.6,0.7,1.3,0.7,2.1c0,1.2-0.4,2.2-1.2,3c-1,1.1-2.4,1.7-4.2,1.7c-0.9,0-1.5-0.1-1.8-0.4
				c-0.3-0.2-0.5-0.5-0.5-0.8c0-0.2,0.1-0.3,0.2-0.5c0.2-0.1,0.4-0.2,0.6-0.2s0.3,0,0.5,0c0.1,0,0.4,0.2,0.8,0.4
				c0.4,0.2,0.7,0.3,0.9,0.4s0.5,0.1,0.8,0.1c0.7,0,1.3-0.3,1.8-0.8s0.8-1.2,0.8-1.9c0-0.5-0.1-1.1-0.4-1.6
				c-0.2-0.4-0.3-0.6-0.5-0.8c-0.3-0.3-0.7-0.5-1.2-0.8c-0.5-0.2-1-0.3-1.5-0.3h-0.3v-0.3c0.5-0.1,1.1-0.3,1.6-0.6
				c0.5-0.3,0.9-0.7,1.2-1.1c0.2-0.5,0.3-0.9,0.3-1.4c0-0.7-0.2-1.3-0.6-1.7c-0.4-0.4-1-0.6-1.6-0.6c-1,0-1.9,0.6-2.6,1.7
				L551.2,293.5z M549,315c-0.9,0.1-1.6,0.2-2.1,0.5s-1.1,0.7-1.7,1.2c-0.5,0.6-1,1.2-1.3,1.9c-0.4,0.6-0.7,1.4-0.9,2.4
				c0.9-0.7,1.9-1,2.9-1c0.9,0,1.7,0.4,2.4,1.1c0.7,0.8,1,1.7,1,2.9c0,1.1-0.3,2.2-1,3.1c-0.8,1.1-1.9,1.7-3.3,1.7
				c-0.9,0-1.7-0.3-2.3-1c-1.3-1.2-1.9-2.7-1.9-4.6c0-1.2,0.2-2.4,0.7-3.5c0.5-1.1,1.2-2.1,2.1-3c0.9-0.8,1.8-1.4,2.6-1.7
				s1.6-0.5,2.3-0.5h0.5V315z M557.8,314.6v8.9h1.8v1.4h-1.8v3.6h-1.6v-3.6h-5.8v-1.3l6.3-9H557.8z M532.8,302
				c0.2,0.7,0.6,1.3,1,1.8c0.3,0.3,0.7,0.5,1.2,0.5c0.6,0,1.1-0.3,1.6-0.9c0.4-0.5,0.7-1.3,0.7-2.4s-0.2-2.1-0.7-3
				c-0.5-0.8-1.1-1.3-1.9-1.3c-0.2,0-0.5,0.1-0.8,0.2c-0.3,0.1-0.7,0.3-1.3,0.6c-0.1,0.9-0.1,1.6-0.1,2.2
				C532.4,300.5,532.5,301.2,532.8,302z M532.8,318.5c1.8,0.3,3.2,0.9,4.2,2c0.9,0.9,1.3,2,1.3,3.2c0,0.7-0.1,1.4-0.4,2
				c-0.3,0.6-0.7,1.1-1.1,1.5c-0.5,0.4-1,0.8-1.5,1.1c-0.8,0.4-1.5,0.5-2.3,0.5s-1.4-0.1-1.8-0.4c-0.4-0.3-0.6-0.6-0.6-1
				c0-0.2,0.1-0.3,0.2-0.5c0.2-0.1,0.4-0.2,0.6-0.2c0.2,0,0.3,0,0.4,0.1c0.1,0,0.4,0.2,0.7,0.4c0.5,0.3,1,0.5,1.5,0.5
				c0.8,0,1.5-0.3,2-0.9c0.6-0.6,0.9-1.3,0.9-2.2c0-0.8-0.3-1.5-0.8-2.3c-0.5-0.7-1.2-1.3-2.2-1.6c-0.7-0.3-1.7-0.5-3-0.5l2.6-5.3
				h4.8l-0.8,1.7h-4L532.8,318.5z M527.2,317.4c0,1-0.6,2-1.9,3.1c0.8,0.3,1.5,0.8,1.9,1.4c0.4,0.6,0.7,1.3,0.7,2.1
				c0,1.2-0.4,2.2-1.2,3c-1,1.1-2.4,1.7-4.2,1.7c-0.9,0-1.5-0.1-1.8-0.4c-0.3-0.2-0.5-0.5-0.5-0.8c0-0.2,0.1-0.3,0.2-0.5
				c0.2-0.1,0.4-0.2,0.6-0.2s0.3,0,0.5,0c0.1,0,0.3,0.2,0.8,0.4c0.4,0.2,0.7,0.3,0.8,0.4c0.2,0.1,0.5,0.1,0.8,0.1
				c0.7,0,1.3-0.3,1.8-0.8s0.8-1.2,0.8-1.9c0-0.5-0.1-1.1-0.4-1.6c-0.2-0.4-0.3-0.6-0.5-0.8c-0.3-0.3-0.7-0.5-1.2-0.8
				c-0.5-0.2-1-0.3-1.5-0.3h-0.3v-0.3c0.5-0.1,1.1-0.3,1.6-0.6c0.5-0.3,0.9-0.7,1.2-1.1c0.2-0.5,0.3-0.9,0.3-1.4
				c0-0.7-0.2-1.3-0.6-1.7c-0.4-0.4-1-0.6-1.6-0.6c-1,0-1.9,0.6-2.6,1.7l-0.3-0.2c0.4-0.9,0.8-1.6,1.4-2.1s1.3-0.8,2.2-0.8
				c1.1,0,1.9,0.4,2.5,1.1C527,316.3,527.2,316.8,527.2,317.4z M544.2,321c-0.3,0.1-0.7,0.3-1.3,0.6c-0.1,0.9-0.1,1.6-0.1,2.2
				c0,0.6,0.1,1.3,0.3,2.1c0.2,0.7,0.6,1.3,1,1.8c0.3,0.3,0.7,0.5,1.2,0.5c0.6,0,1.1-0.3,1.6-0.9c0.4-0.5,0.6-1.3,0.6-2.4
				s-0.2-2.1-0.6-3c-0.5-0.8-1.1-1.3-2-1.3C544.7,320.8,544.5,320.9,544.2,321z M532.8,343.6c-0.4,0.5-0.6,1.3-0.6,2.4
				c0,1.4,0.3,2.5,0.9,3.3c0.4,0.6,1,0.9,1.6,0.9c0.3,0,0.6-0.1,1-0.2c0.4-0.2,0.8-0.4,1.1-0.7c0.1-0.9,0.2-1.5,0.2-2
				c0-0.7-0.1-1.4-0.3-2.1c-0.2-0.8-0.5-1.4-0.9-1.8c-0.4-0.4-0.9-0.6-1.4-0.6C533.8,342.8,533.3,343.1,532.8,343.6z M534.7,342.1
				c1.1,0,2,0.5,2.8,1.4c1,1.1,1.5,2.5,1.5,4.2c0,1.5-0.4,3-1.1,4.3c-0.7,1.3-1.8,2.4-3.1,3.2c-1.1,0.7-2.2,1.1-3.5,1.1h-0.5v-0.4
				c0.9,0,1.7-0.2,2.4-0.6c0.7-0.4,1.5-1.1,2.2-2c0.7-0.9,1.2-2,1.5-3.2c-1,0.7-2,1-2.8,1c-1,0-1.8-0.4-2.5-1.1
				c-0.7-0.7-1-1.7-1-2.9c0-1.2,0.3-2.3,1-3.2C532.3,342.7,533.3,342.1,534.7,342.1z M527.2,344.9c0,1-0.6,2-1.9,3.1
				c0.8,0.3,1.5,0.8,1.9,1.4c0.4,0.6,0.7,1.3,0.7,2.1c0,1.2-0.4,2.2-1.2,3c-1,1.1-2.4,1.7-4.2,1.7c-0.9,0-1.5-0.1-1.8-0.3
				c-0.3-0.2-0.5-0.5-0.5-0.8c0-0.2,0.1-0.3,0.2-0.5c0.2-0.1,0.4-0.2,0.6-0.2s0.3,0,0.5,0c0.1,0,0.3,0.2,0.8,0.4
				c0.4,0.2,0.7,0.3,0.8,0.3c0.2,0.1,0.5,0.1,0.8,0.1c0.7,0,1.3-0.3,1.8-0.8s0.8-1.2,0.8-1.9c0-0.5-0.1-1-0.4-1.5
				c-0.2-0.4-0.3-0.6-0.5-0.8c-0.3-0.3-0.7-0.5-1.2-0.7s-1-0.3-1.5-0.3h-0.3V349c0.5-0.1,1.1-0.3,1.6-0.6c0.5-0.3,0.9-0.7,1.2-1.1
				c0.2-0.5,0.3-0.9,0.3-1.4c0-0.7-0.2-1.3-0.6-1.7c-0.4-0.4-1-0.6-1.6-0.6c-1,0-1.9,0.6-2.6,1.7l-0.3-0.2c0.4-0.9,0.8-1.6,1.4-2.1
				s1.3-0.8,2.2-0.8c1.1,0,1.9,0.4,2.5,1.1C527,343.8,527.2,344.3,527.2,344.9z M542.4,342.9c0.6-0.5,1.3-0.8,2.2-0.8
				c1.1,0,1.9,0.4,2.5,1.1c0.4,0.5,0.7,1,0.7,1.6c0,1-0.6,2-1.8,3.1c0.8,0.3,1.5,0.8,1.9,1.4c0.4,0.6,0.7,1.3,0.7,2.1
				c0,1.2-0.4,2.2-1.2,3c-1,1.1-2.4,1.7-4.2,1.7c-0.9,0-1.5-0.1-1.8-0.3c-0.3-0.2-0.5-0.5-0.5-0.8c0-0.2,0.1-0.3,0.2-0.5
				c0.2-0.1,0.4-0.2,0.6-0.2s0.3,0,0.5,0c0.1,0,0.4,0.2,0.8,0.4s0.7,0.3,0.9,0.3c0.2,0.1,0.5,0.1,0.8,0.1c0.7,0,1.3-0.3,1.8-0.8
				s0.8-1.2,0.8-1.9c0-0.5-0.1-1-0.4-1.5c-0.2-0.4-0.3-0.6-0.5-0.8c-0.3-0.3-0.7-0.5-1.2-0.7c-0.5-0.2-1-0.3-1.5-0.3H543V349
				c0.5-0.1,1.1-0.3,1.6-0.6c0.5-0.3,0.9-0.7,1.2-1.1c0.2-0.5,0.3-0.9,0.3-1.4c0-0.7-0.2-1.3-0.6-1.7c-0.4-0.4-1-0.6-1.6-0.6
				c-1,0-1.9,0.6-2.6,1.7L541,345C541.3,344.1,541.8,343.4,542.4,342.9z M556.2,323.5v-6.7l-4.8,6.7H556.2z M555.2,342.1
				c1.1,0,2,0.5,2.8,1.4c1,1.1,1.5,2.5,1.5,4.2c0,1.5-0.4,3-1.1,4.3c-0.7,1.3-1.8,2.4-3.1,3.2c-1.1,0.7-2.2,1.1-3.5,1.1h-0.5v-0.4
				c0.9,0,1.7-0.2,2.4-0.6c0.7-0.4,1.4-1.1,2.1-2c0.7-0.9,1.2-2,1.5-3.2c-1,0.7-2,1-2.8,1c-1,0-1.8-0.4-2.5-1.1s-1-1.7-1-2.9
				c0-1.2,0.3-2.3,1-3.2C552.8,342.7,553.9,342.1,555.2,342.1z M555,342.8c-0.6,0-1.1,0.3-1.5,0.8s-0.7,1.3-0.7,2.4
				c0,1.4,0.3,2.5,0.9,3.3c0.4,0.6,1,0.9,1.6,0.9c0.3,0,0.7-0.1,1-0.2c0.4-0.2,0.8-0.4,1.1-0.7c0.1-0.9,0.2-1.5,0.2-2
				c0-0.7-0.1-1.4-0.3-2.1c-0.2-0.8-0.5-1.4-0.9-1.8C556,343,555.5,342.8,555,342.8z M515.1,317c-0.5-0.6-1.2-0.8-1.9-0.8
				s-1.3,0.2-1.8,0.6c-0.5,0.4-0.9,0.9-1.2,1.7h-0.3c0.2-1.2,0.6-2.2,1.3-2.9c0.7-0.7,1.6-1,2.6-1c1.1,0,2,0.4,2.8,1.1
				c0.7,0.7,1.1,1.5,1.1,2.5c0,0.7-0.2,1.4-0.5,2c-0.5,1.1-1.3,2.2-2.4,3.4c-1.6,1.8-2.7,2.9-3.1,3.3h3.6c0.7,0,1.2,0,1.5-0.1
				c0.3,0,0.6-0.1,0.8-0.3c0.2-0.2,0.4-0.4,0.6-0.7h0.4l-1,2.6h-8V328c2.3-2.2,4-3.9,5-5.3c1-1.4,1.5-2.6,1.5-3.8
				C515.9,318.3,515.6,317.6,515.1,317z M516.8,342.1v8.9h1.8v1.4h-1.8v3.6h-1.7v-3.6h-5.8v-1.3l6.3-9H516.8z M515.1,351v-6.7
				l-4.8,6.7H515.1z M513.3,368.7c-0.1-0.2-0.1-0.4-0.3-0.5c-0.1-0.1-0.3-0.2-0.4-0.2c-0.3,0-0.6,0.1-1.1,0.3l-0.1-0.3l3.3-1.6h0.3
				v11.5c0,0.8,0,1.3,0.1,1.4c0.1,0.2,0.2,0.3,0.4,0.4s0.6,0.2,1.3,0.2v0.3h-5.1V380c0.6,0,1-0.1,1.3-0.2c0.2-0.1,0.3-0.2,0.3-0.3
				c0.1-0.2,0.2-0.7,0.2-1.5v-7.3C513.5,369.6,513.4,369,513.3,368.7z M523.4,370.4c-0.4,0.6-0.7,1.4-0.9,2.3c0.9-0.7,1.9-1,2.8-1
				c0.9,0,1.7,0.4,2.4,1.1c0.7,0.8,1,1.7,1,2.9c0,1.1-0.3,2.2-1,3.1c-0.8,1.1-1.9,1.7-3.3,1.7c-0.9,0-1.7-0.3-2.3-1
				c-1.3-1.2-1.9-2.7-1.9-4.6c0-1.2,0.2-2.4,0.7-3.5c0.5-1.1,1.2-2.1,2.1-3c0.9-0.8,1.8-1.4,2.6-1.7c0.8-0.3,1.6-0.5,2.3-0.5h0.5
				v0.4c-0.9,0.1-1.6,0.2-2.2,0.5c-0.5,0.3-1.1,0.7-1.6,1.2C524.2,369.1,523.7,369.7,523.4,370.4z M524.4,372.6
				c-0.2,0-0.5,0.1-0.8,0.2c-0.3,0.1-0.7,0.3-1.3,0.7c-0.1,0.9-0.1,1.6-0.1,2.2c0,0.6,0.1,1.3,0.3,2.1c0.2,0.7,0.6,1.3,1,1.8
				c0.3,0.3,0.7,0.5,1.2,0.5c0.6,0,1.1-0.3,1.6-0.8c0.4-0.5,0.7-1.3,0.7-2.4c0-1.1-0.2-2.1-0.7-3C525.9,373,525.2,372.6,524.4,372.6
				z M514.8,390.9h0.3v11.4c0,0.8,0,1.3,0.1,1.5c0.1,0.2,0.2,0.3,0.4,0.4c0.2,0.1,0.6,0.2,1.3,0.2v0.3h-5.1v-0.3
				c0.6,0,1-0.1,1.3-0.2c0.2-0.1,0.3-0.2,0.3-0.4c0.1-0.2,0.2-0.7,0.2-1.5V395c0-1,0-1.6-0.1-1.9c-0.1-0.2-0.1-0.4-0.3-0.5
				c-0.1-0.1-0.3-0.2-0.4-0.2c-0.3,0-0.6,0.1-1.1,0.3l-0.1-0.3L514.8,390.9z M524.3,390.9h0.3v11.4c0,0.8,0,1.3,0.1,1.5
				c0.1,0.2,0.2,0.3,0.4,0.4c0.2,0.1,0.6,0.2,1.3,0.2v0.3h-5.1v-0.3c0.6,0,1-0.1,1.3-0.2c0.2-0.1,0.3-0.2,0.3-0.4
				c0.1-0.2,0.2-0.7,0.2-1.5V395c0-1,0-1.6-0.1-1.9c-0.1-0.2-0.2-0.4-0.3-0.5c-0.1-0.1-0.3-0.2-0.5-0.2c-0.3,0-0.6,0.1-1,0.3
				l-0.2-0.3L524.3,390.9z M555.3,366.5c1.1,0,2,0.3,2.7,0.9c0.7,0.6,1,1.3,1,2.1c0,0.5-0.2,1-0.6,1.5c-0.4,0.5-1.1,1.1-2.3,1.8
				c1.2,0.9,2,1.6,2.4,2.2c0.5,0.7,0.8,1.4,0.8,2.1c0,0.9-0.4,1.8-1.1,2.5c-0.7,0.7-1.7,1-2.8,1c-1.3,0-2.3-0.4-3-1.2
				c-0.6-0.7-0.8-1.4-0.8-2.1c0-0.6,0.2-1.2,0.6-1.8c0.4-0.6,1.1-1.3,2.1-2c-1.1-0.9-1.8-1.6-2.1-2.2c-0.3-0.5-0.5-1.1-0.5-1.6
				c0-0.9,0.3-1.6,1-2.3C553.3,366.8,554.2,366.5,555.3,366.5z M553,369c0,0.4,0.1,0.7,0.3,1c0.2,0.4,0.4,0.7,0.8,1l1.7,1.4
				c0.8-0.7,1.3-1.3,1.5-1.7c0.2-0.4,0.3-0.9,0.3-1.4c0-0.7-0.2-1.3-0.6-1.6c-0.4-0.4-0.9-0.6-1.6-0.6c-0.7,0-1.3,0.2-1.6,0.6
				C553.2,368,553,368.5,553,369z M547.8,369.2c0,1-0.6,2-1.8,3.1c0.8,0.3,1.5,0.8,1.9,1.4c0.4,0.6,0.7,1.3,0.7,2.1
				c0,1.2-0.4,2.2-1.2,3c-1,1.1-2.4,1.7-4.2,1.7c-0.9,0-1.5-0.1-1.8-0.3c-0.3-0.2-0.5-0.5-0.5-0.8c0-0.2,0.1-0.3,0.2-0.5
				c0.2-0.1,0.4-0.2,0.6-0.2s0.3,0,0.5,0c0.1,0,0.4,0.2,0.8,0.4c0.4,0.2,0.7,0.3,0.9,0.3c0.2,0.1,0.5,0.1,0.8,0.1
				c0.7,0,1.3-0.3,1.8-0.8s0.8-1.2,0.8-1.9c0-0.5-0.1-1-0.4-1.5c-0.2-0.4-0.3-0.6-0.5-0.8c-0.3-0.3-0.7-0.5-1.2-0.8
				c-0.5-0.2-1-0.3-1.5-0.3H543v-0.3c0.5-0.1,1.1-0.3,1.6-0.6c0.5-0.3,0.9-0.7,1.2-1.1c0.2-0.5,0.3-0.9,0.3-1.4
				c0-0.7-0.2-1.3-0.6-1.7c-0.4-0.4-1-0.6-1.6-0.6c-1,0-1.9,0.6-2.6,1.7l-0.3-0.2c0.4-0.9,0.8-1.6,1.5-2.1c0.6-0.5,1.3-0.8,2.2-0.8
				c1.1,0,1.9,0.4,2.5,1.1C547.5,368,547.8,368.6,547.8,369.2z M535,368.5c-0.5,0.6-1,1.2-1.3,1.9c-0.4,0.6-0.7,1.4-0.9,2.3
				c0.9-0.7,1.9-1,2.8-1c0.9,0,1.7,0.4,2.4,1.1c0.7,0.8,1,1.7,1,2.9c0,1.1-0.3,2.2-1,3.1c-0.8,1.1-1.9,1.7-3.3,1.7
				c-0.9,0-1.7-0.3-2.3-1c-1.3-1.2-1.9-2.7-1.9-4.6c0-1.2,0.2-2.4,0.7-3.5c0.5-1.1,1.2-2.1,2.1-3c0.9-0.8,1.8-1.4,2.6-1.7
				c0.8-0.3,1.6-0.5,2.3-0.5h0.5v0.4c-0.9,0.1-1.6,0.2-2.2,0.5C536.1,367.6,535.5,368,535,368.5z M532.5,373.5
				c-0.1,0.9-0.1,1.6-0.1,2.2c0,0.6,0.1,1.3,0.3,2.1c0.2,0.7,0.6,1.3,1,1.8c0.3,0.3,0.7,0.5,1.2,0.5c0.6,0,1.1-0.3,1.6-0.8
				c0.4-0.5,0.7-1.3,0.7-2.4c0-1.1-0.2-2.1-0.7-3c-0.5-0.8-1.1-1.3-1.9-1.3c-0.2,0-0.5,0.1-0.8,0.2
				C533.5,372.9,533.1,373.1,532.5,373.5z M534.2,393c-0.5,0.6-1,1.2-1.3,1.8c-0.4,0.6-0.7,1.4-0.9,2.4c0.9-0.7,1.9-1,2.8-1
				c0.9,0,1.7,0.4,2.4,1.1c0.7,0.8,1,1.7,1,2.9c0,1.1-0.3,2.2-1,3.1c-0.8,1.1-1.9,1.7-3.3,1.7c-0.9,0-1.7-0.3-2.3-1
				c-1.3-1.2-1.9-2.7-1.9-4.6c0-1.2,0.2-2.4,0.7-3.5c0.5-1.1,1.2-2.1,2.1-3c0.9-0.8,1.8-1.4,2.6-1.7c0.8-0.3,1.6-0.4,2.3-0.4h0.5
				v0.4c-0.9,0.1-1.6,0.2-2.2,0.5C535.3,392.1,534.8,392.5,534.2,393z M543.2,392.7c-0.1-0.1-0.3-0.2-0.5-0.2c-0.3,0-0.6,0.1-1,0.3
				l-0.2-0.3l3.3-1.6h0.3v11.4c0,0.8,0,1.3,0.1,1.5c0.1,0.2,0.2,0.3,0.4,0.4c0.2,0.1,0.6,0.2,1.3,0.2v0.3h-5.1v-0.3
				c0.6,0,1-0.1,1.3-0.2c0.2-0.1,0.3-0.2,0.4-0.4s0.1-0.7,0.1-1.5V395c0-1,0-1.6-0.1-1.9C543.4,393,543.3,392.8,543.2,392.7z
				 M557.4,376.6c-0.5-0.7-1.4-1.6-2.9-2.8c-0.6,0.5-1,1-1.3,1.6c-0.3,0.5-0.4,1.1-0.4,1.8c0,0.9,0.3,1.6,0.8,2.1s1,0.8,1.8,0.8
				c0.7,0,1.3-0.2,1.8-0.6c0.4-0.4,0.6-0.9,0.6-1.5S557.7,377,557.4,376.6z M554.5,391.6c-0.5,0-0.9,0.2-1.2,0.6
				c-0.5,0.5-0.8,1.4-1,2.6s-0.3,2.4-0.3,3.5c0,1.9,0.2,3.4,0.7,4.5c0.4,1,0.9,1.5,1.7,1.5c0.3,0,0.7-0.1,1.1-0.4
				c0.4-0.3,0.7-0.9,0.9-1.7c0.3-1.1,0.5-2.8,0.5-4.8c0-1.5-0.2-2.8-0.5-3.9c-0.2-0.8-0.5-1.3-0.9-1.6
				C555.3,391.7,554.9,391.6,554.5,391.6z M554.5,390.9c1,0,2,0.5,2.8,1.6c1,1.3,1.6,3.1,1.6,5.3c0,1.6-0.2,2.9-0.7,4
				c-0.4,1.1-1,1.9-1.7,2.4s-1.4,0.8-2,0.8c-1.3,0-2.4-0.8-3.2-2.3c-0.7-1.3-1.1-2.9-1.1-4.7c0-1.5,0.2-2.9,0.7-4s1.1-1.9,1.9-2.5
				C553.3,391.1,553.9,390.9,554.5,390.9z M562.1,393.1c-0.6,0.3-1,0.8-1.3,1.4l-0.3-0.1l1.3-3.2h7.3v0.4l-4.5,13.5h-1.1l4-12.2
				h-3.8C563,392.8,562.4,392.9,562.1,393.1z M547.8,418.2c0,1-0.6,2-1.8,3.1c0.8,0.3,1.5,0.8,1.9,1.4c0.4,0.6,0.7,1.3,0.7,2.1
				c0,1.2-0.4,2.2-1.2,3c-1,1.1-2.4,1.7-4.2,1.7c-0.9,0-1.5-0.1-1.8-0.3c-0.3-0.2-0.5-0.5-0.5-0.8c0-0.2,0.1-0.3,0.2-0.5
				c0.2-0.1,0.4-0.2,0.6-0.2s0.3,0,0.5,0c0.1,0,0.4,0.2,0.8,0.4c0.4,0.2,0.7,0.3,0.9,0.3c0.2,0.1,0.5,0.1,0.8,0.1
				c0.7,0,1.3-0.3,1.8-0.8s0.8-1.2,0.8-1.9c0-0.5-0.1-1-0.4-1.5c-0.2-0.4-0.3-0.6-0.5-0.8c-0.3-0.3-0.7-0.5-1.2-0.8
				c-0.5-0.2-1-0.3-1.5-0.3H543v-0.3c0.5-0.1,1.1-0.3,1.6-0.6s0.9-0.7,1.2-1.1c0.2-0.5,0.3-1,0.3-1.5c0-0.7-0.2-1.3-0.6-1.7
				c-0.4-0.4-1-0.6-1.6-0.6c-1,0-1.9,0.5-2.6,1.7l-0.3-0.2c0.4-0.9,0.8-1.6,1.5-2.1c0.6-0.5,1.3-0.8,2.2-0.8c1.1,0,1.9,0.4,2.5,1.1
				C547.5,417,547.8,417.5,547.8,418.2z M557.8,415.4v8.8h1.8v1.4h-1.8v3.6h-1.6v-3.6h-5.8v-1.3l6.3-9h1.1V415.4z M531.8,397.9
				c-0.1,0.9-0.1,1.6-0.1,2.2c0,0.6,0.1,1.3,0.3,2.1c0.2,0.7,0.6,1.3,1,1.8c0.3,0.3,0.7,0.5,1.2,0.5c0.6,0,1.1-0.3,1.6-0.9
				c0.4-0.5,0.7-1.3,0.7-2.3c0-1.1-0.2-2.1-0.7-3c-0.5-0.8-1.1-1.3-1.9-1.3c-0.2,0-0.5,0.1-0.8,0.2
				C532.8,397.3,532.4,397.6,531.8,397.9z M527.9,419c0,0.7-0.2,1.3-0.5,2c-0.5,1.1-1.3,2.2-2.4,3.4c-1.6,1.8-2.7,2.9-3.1,3.3h3.5
				c0.7,0,1.2,0,1.5-0.1c0.3,0,0.6-0.1,0.8-0.3s0.4-0.4,0.6-0.7h0.4l-1,2.6h-8v-0.3c2.3-2.2,4-3.9,5-5.3c1-1.4,1.5-2.6,1.5-3.8
				c0-0.9-0.3-1.6-0.8-2.1c-0.5-0.6-1.2-0.8-1.9-0.8s-1.3,0.2-1.8,0.6s-0.9,0.9-1.2,1.7h-0.3c0.2-1.2,0.6-2.2,1.3-2.8
				c0.7-0.7,1.6-1,2.6-1c1.1,0,2,0.4,2.8,1.1C527.5,417.2,527.9,418,527.9,419z M531.7,415.7h7.3v0.4l-4.5,13.5h-1.1l4-12.2h-3.8
				c-0.7,0-1.3,0.1-1.6,0.3c-0.6,0.3-1,0.8-1.3,1.4l-0.3-0.1L531.7,415.7z M533.5,440.7c-0.5,0.5-0.8,1.4-1,2.6s-0.3,2.4-0.3,3.5
				c0,1.9,0.2,3.4,0.7,4.5c0.4,1,0.9,1.5,1.7,1.5c0.3,0,0.7-0.1,1.1-0.5c0.4-0.3,0.7-0.9,0.9-1.6c0.3-1.1,0.5-2.8,0.5-4.9
				c0-1.5-0.2-2.8-0.5-3.8c-0.2-0.8-0.5-1.3-0.9-1.7c-0.3-0.2-0.6-0.3-1-0.3C534.3,440,533.9,440.3,533.5,440.7z M534.8,439.3
				c1,0,2,0.5,2.8,1.6c1,1.3,1.5,3.1,1.5,5.3c0,1.6-0.2,2.9-0.7,4c-0.4,1.1-1,1.9-1.7,2.4s-1.4,0.8-2,0.8c-1.3,0-2.4-0.8-3.2-2.3
				c-0.7-1.3-1.1-2.9-1.1-4.7c0-1.5,0.2-2.9,0.7-4c0.5-1.1,1.1-1.9,1.9-2.5C533.5,439.6,534.1,439.3,534.8,439.3z M528.7,445
				c0,1.5-0.4,3-1.1,4.3c-0.7,1.3-1.8,2.4-3.1,3.2c-1.1,0.7-2.2,1.1-3.5,1.1h-0.5v-0.4c0.9,0,1.7-0.2,2.4-0.6c0.7-0.4,1.5-1.1,2.2-2
				c0.7-0.9,1.2-2,1.5-3.2c-1,0.7-2,1-2.8,1c-1,0-1.8-0.4-2.5-1.1s-1-1.7-1-2.9c0-1.2,0.3-2.3,1-3.2c0.8-1.1,1.9-1.7,3.2-1.7
				c1.1,0,2,0.5,2.8,1.4C528.2,441.9,528.7,443.3,528.7,445z M545.6,439.3h0.3v11.5c0,0.8,0,1.3,0.1,1.5s0.2,0.3,0.4,0.4
				c0.2,0.1,0.6,0.2,1.3,0.2v0.4h-5.1v-0.4c0.6,0,1-0.1,1.3-0.2c0.2-0.1,0.3-0.2,0.4-0.4c0.1-0.2,0.1-0.7,0.1-1.5v-7.3
				c0-1,0-1.6-0.1-1.9c-0.1-0.2-0.2-0.3-0.3-0.4c-0.1-0.1-0.3-0.2-0.5-0.2c-0.3,0-0.6,0.1-1,0.3l-0.2-0.3L545.6,439.3z M556.2,424.3
				v-6.7l-4.8,6.7H556.2z M555.1,439.3h0.3v11.5c0,0.8,0,1.3,0.1,1.5s0.2,0.3,0.4,0.4c0.2,0.1,0.6,0.2,1.3,0.2v0.4H552v-0.4
				c0.6,0,1-0.1,1.3-0.2c0.2-0.1,0.3-0.2,0.4-0.4c0.1-0.2,0.1-0.7,0.1-1.5v-7.3c0-1,0-1.6-0.1-1.9c-0.1-0.2-0.2-0.3-0.3-0.4
				c-0.1-0.1-0.3-0.2-0.5-0.2c-0.3,0-0.6,0.1-1,0.3l-0.2-0.3L555.1,439.3z M516.8,415.4v8.8h1.8v1.4h-1.8v3.6h-1.7v-3.6h-5.8v-1.3
				l6.3-9h1.2V415.4z M515.1,424.3v-6.7l-4.8,6.7H515.1z M515.1,441.8c-0.5-0.6-1.2-0.8-1.9-0.8s-1.3,0.2-1.8,0.6
				c-0.5,0.4-0.9,0.9-1.2,1.7h-0.3c0.2-1.2,0.6-2.2,1.3-2.9c0.7-0.7,1.6-1,2.6-1c1.1,0,2,0.4,2.8,1.1c0.7,0.7,1.1,1.5,1.1,2.5
				c0,0.7-0.2,1.3-0.5,2c-0.5,1.1-1.3,2.2-2.4,3.4c-1.6,1.8-2.7,2.9-3.1,3.3h3.6c0.7,0,1.2,0,1.5-0.1c0.3,0,0.6-0.1,0.8-0.3
				c0.2-0.2,0.4-0.4,0.6-0.7h0.4l-1,2.6h-8v-0.4c2.3-2.2,4-3.9,5-5.3s1.5-2.6,1.5-3.8C515.9,443,515.6,442.3,515.1,441.8z
				 M525.5,440.6c-0.4-0.4-0.9-0.6-1.4-0.6c-0.6,0-1.1,0.3-1.6,0.8c-0.4,0.5-0.6,1.3-0.6,2.4c0,1.4,0.3,2.5,0.9,3.3
				c0.4,0.6,1,0.8,1.6,0.8c0.3,0,0.6-0.1,1-0.2c0.4-0.2,0.8-0.4,1.1-0.7c0.1-0.9,0.2-1.5,0.2-2c0-0.7-0.1-1.4-0.3-2.1
				C526.3,441.6,526,441,525.5,440.6z M509.9,467.5c0.2-1.2,0.6-2.2,1.3-2.8c0.7-0.7,1.6-1,2.6-1c1.1,0,2,0.4,2.8,1.1
				c0.7,0.7,1.1,1.5,1.1,2.5c0,0.7-0.2,1.4-0.5,2c-0.5,1.1-1.3,2.2-2.4,3.4c-1.6,1.8-2.7,2.9-3.1,3.3h3.6c0.7,0,1.2,0,1.5-0.1
				c0.3,0,0.6-0.1,0.8-0.3c0.2-0.2,0.4-0.4,0.6-0.7h0.4l-1,2.6h-8v-0.3c2.3-2.2,4-3.9,5-5.3c1-1.4,1.5-2.6,1.5-3.8
				c0-0.9-0.3-1.6-0.8-2.1c-0.5-0.6-1.2-0.8-1.9-0.8c-0.7,0-1.3,0.2-1.8,0.6c-0.5,0.4-0.9,0.9-1.2,1.7L509.9,467.5L509.9,467.5z
				 M523.6,470c-0.3,0.1-0.7,0.3-1.3,0.7c-0.1,0.9-0.1,1.6-0.1,2.2c0,0.6,0.1,1.3,0.3,2.1c0.2,0.7,0.6,1.3,1,1.8
				c0.3,0.3,0.7,0.5,1.2,0.5c0.6,0,1.1-0.3,1.6-0.8c0.4-0.5,0.7-1.3,0.7-2.4c0-1.1-0.2-2.1-0.7-3c-0.5-0.8-1.1-1.3-1.9-1.3
				C524.2,469.8,523.9,469.9,523.6,470z M522.5,470c0.9-0.7,1.9-1,2.8-1c0.9,0,1.7,0.4,2.4,1.1c0.7,0.8,1,1.7,1,2.9
				c0,1.1-0.3,2.2-1,3.1c-0.8,1.1-1.9,1.7-3.3,1.7c-0.9,0-1.7-0.3-2.3-1c-1.3-1.2-1.9-2.7-1.9-4.6c0-1.2,0.2-2.4,0.7-3.5
				c0.5-1.1,1.2-2.1,2.1-3c0.9-0.8,1.8-1.4,2.6-1.7c0.8-0.3,1.6-0.5,2.3-0.5h0.5v0.4c-0.9,0.1-1.6,0.2-2.2,0.5
				c-0.5,0.3-1.1,0.7-1.6,1.2c-0.5,0.6-1,1.2-1.3,1.9C523,468.3,522.7,469.1,522.5,470z M514.8,488.2h0.3v11.4c0,0.8,0,1.3,0.1,1.5
				c0.1,0.2,0.2,0.3,0.4,0.4c0.2,0.1,0.6,0.2,1.3,0.2v0.3h-5.1v-0.3c0.6,0,1-0.1,1.3-0.2c0.2-0.1,0.3-0.2,0.3-0.4
				c0.1-0.2,0.2-0.7,0.2-1.5v-7.3c0-1,0-1.6-0.1-1.9c-0.1-0.2-0.1-0.4-0.3-0.5c-0.1-0.1-0.3-0.2-0.4-0.2c-0.3,0-0.6,0.1-1.1,0.3
				l-0.1-0.3L514.8,488.2z M521.8,490.3c-0.6,0.3-1,0.8-1.3,1.4l-0.3-0.1l1.3-3.2h7.3v0.4l-4.5,13.5H523l4-12.2h-3.8
				C522.6,490.1,522.1,490.2,521.8,490.3z M552.5,465.9c-0.6,0.3-1,0.8-1.3,1.4l-0.3-0.1l1.3-3.2h7.3v0.4l-4.5,13.4h-1.1l4.1-12.2
				h-3.8C553.4,465.7,552.9,465.7,552.5,465.9z M548.5,467.3c0,0.7-0.2,1.4-0.5,2c-0.5,1.1-1.3,2.2-2.4,3.4
				c-1.6,1.8-2.7,2.9-3.1,3.3h3.5c0.7,0,1.2,0,1.5-0.1c0.3,0,0.6-0.1,0.8-0.3c0.2-0.2,0.4-0.4,0.6-0.7h0.4l-1,2.6h-8v-0.3
				c2.3-2.2,4-3.9,5-5.3c1-1.4,1.5-2.6,1.5-3.8c0-0.9-0.3-1.6-0.8-2.1c-0.5-0.6-1.2-0.8-1.9-0.8c-0.7,0-1.3,0.2-1.8,0.6
				c-0.5,0.4-0.9,0.9-1.2,1.7h-0.3c0.2-1.2,0.6-2.2,1.3-2.8c0.7-0.7,1.6-1,2.6-1c1.1,0,2,0.4,2.8,1.1
				C548.1,465.5,548.5,466.3,548.5,467.3z M532.8,467.5c1.8,0.3,3.2,0.9,4.2,2c0.9,0.9,1.3,2,1.3,3.2c0,0.7-0.1,1.3-0.4,2
				c-0.3,0.6-0.7,1.1-1.1,1.5c-0.5,0.4-1,0.8-1.5,1c-0.8,0.4-1.5,0.5-2.3,0.5s-1.4-0.1-1.8-0.4c-0.4-0.3-0.6-0.6-0.6-1
				c0-0.2,0.1-0.3,0.2-0.5c0.2-0.1,0.4-0.2,0.6-0.2c0.2,0,0.3,0,0.4,0.1c0.1,0,0.4,0.2,0.7,0.4c0.5,0.3,1,0.5,1.5,0.5
				c0.8,0,1.5-0.3,2-0.8c0.6-0.6,0.9-1.3,0.9-2.2c0-0.8-0.3-1.5-0.8-2.3c-0.5-0.7-1.2-1.3-2.2-1.7c-0.7-0.3-1.7-0.5-3-0.5l2.6-5.3
				h4.8l-0.8,1.7h-4L532.8,467.5z M535.6,488.2v11.4c0,0.8,0,1.3,0.1,1.5c0.1,0.2,0.2,0.3,0.4,0.4c0.2,0.1,0.6,0.2,1.3,0.2v0.3h-5.1
				v-0.3c0.6,0,1-0.1,1.3-0.2c0.2-0.1,0.3-0.2,0.3-0.4c0.1-0.2,0.2-0.7,0.2-1.5v-7.3c0-1,0-1.6-0.1-1.9c-0.1-0.2-0.2-0.4-0.3-0.5
				c-0.1-0.1-0.3-0.2-0.5-0.2c-0.3,0-0.6,0.1-1,0.3l-0.2-0.3l3.3-1.6h0.3V488.2z M543,491.8c0.2,0.4,0.4,0.7,0.8,1l1.7,1.3
				c0.8-0.7,1.3-1.3,1.5-1.7c0.2-0.4,0.3-0.9,0.3-1.4c0-0.7-0.2-1.3-0.6-1.7c-0.4-0.4-0.9-0.6-1.6-0.6c-0.7,0-1.3,0.2-1.6,0.6
				c-0.4,0.4-0.7,0.9-0.7,1.4C542.8,491.1,542.8,491.4,543,491.8z M545,488.2c1.1,0,2,0.3,2.7,0.9c0.7,0.6,1,1.3,1,2
				c0,0.5-0.2,1-0.6,1.6c-0.4,0.5-1.1,1.1-2.3,1.8c1.2,0.9,2,1.6,2.4,2.2c0.5,0.7,0.8,1.4,0.8,2.1c0,0.9-0.4,1.8-1.1,2.5
				c-0.7,0.7-1.7,1-2.8,1c-1.3,0-2.3-0.4-3-1.2c-0.6-0.7-0.8-1.4-0.8-2.1c0-0.6,0.2-1.2,0.6-1.8c0.4-0.6,1.1-1.3,2.1-2
				c-1.1-0.9-1.8-1.6-2.1-2.2c-0.3-0.6-0.5-1.1-0.5-1.6c0-0.9,0.3-1.6,1-2.3C543,488.5,543.9,488.2,545,488.2z M551.2,491
				c0.4-0.9,0.8-1.6,1.5-2.1c0.6-0.5,1.3-0.8,2.2-0.8c1.1,0,1.9,0.4,2.5,1.1c0.4,0.5,0.7,1,0.7,1.7c0,1-0.6,2-1.8,3.1
				c0.8,0.3,1.5,0.8,1.9,1.4c0.4,0.6,0.7,1.3,0.7,2.1c0,1.2-0.4,2.2-1.2,3c-1,1.1-2.4,1.7-4.2,1.7c-0.9,0-1.5-0.1-1.8-0.3
				c-0.3-0.2-0.5-0.5-0.5-0.8c0-0.2,0.1-0.3,0.2-0.5c0.2-0.1,0.4-0.2,0.6-0.2s0.3,0,0.5,0c0.1,0,0.4,0.2,0.8,0.4
				c0.4,0.2,0.7,0.3,0.9,0.3c0.2,0.1,0.5,0.1,0.8,0.1c0.7,0,1.3-0.3,1.8-0.8s0.8-1.2,0.8-1.9c0-0.5-0.1-1-0.4-1.5
				c-0.2-0.4-0.3-0.6-0.5-0.8c-0.3-0.3-0.7-0.5-1.2-0.8c-0.5-0.2-1-0.3-1.5-0.3h-0.3V495c0.5-0.1,1.1-0.3,1.6-0.6
				c0.5-0.3,0.9-0.7,1.2-1.1c0.2-0.5,0.3-1,0.3-1.5c0-0.7-0.2-1.3-0.6-1.7c-0.4-0.4-1-0.6-1.6-0.6c-1,0-1.9,0.5-2.6,1.7L551.2,491z
				 M547.5,499.6c0-0.5-0.1-0.9-0.4-1.3c-0.5-0.7-1.4-1.6-2.9-2.8c-0.6,0.5-1,1-1.3,1.5c-0.3,0.5-0.4,1.1-0.4,1.8
				c0,0.9,0.3,1.6,0.8,2.1s1,0.8,1.8,0.8c0.7,0,1.3-0.2,1.8-0.6C547.3,500.7,547.5,500.2,547.5,499.6z M547,515.6
				c-0.2-0.8-0.5-1.3-0.9-1.8c-0.4-0.4-0.9-0.6-1.4-0.6c-0.6,0-1.1,0.3-1.5,0.8c-0.4,0.5-0.7,1.3-0.7,2.4c0,1.4,0.3,2.5,0.9,3.3
				c0.4,0.6,1,0.8,1.6,0.8c0.3,0,0.7-0.1,1-0.2c0.4-0.2,0.8-0.4,1.1-0.7c0.1-0.9,0.2-1.5,0.2-2C547.3,517,547.2,516.3,547,515.6z
				 M549.3,518.2c0,1.5-0.4,3-1.1,4.3s-1.8,2.4-3.1,3.2c-1.1,0.7-2.2,1.1-3.5,1.1H541v-0.4c0.9,0,1.7-0.2,2.4-0.6
				c0.7-0.4,1.4-1.1,2.1-2c0.7-0.9,1.2-2,1.5-3.2c-1,0.7-2,1-2.8,1c-1,0-1.8-0.4-2.5-1.1s-1-1.7-1-2.9c0-1.2,0.3-2.3,1-3.2
				c0.8-1.1,1.9-1.7,3.2-1.7c1.1,0,2,0.5,2.8,1.4C548.8,515.1,549.3,516.5,549.3,518.2z M556.2,517.9c0.9,0,1.7,0.4,2.4,1.1
				c0.7,0.8,1,1.7,1,2.9c0,1.1-0.3,2.2-1,3.1c-0.8,1.1-1.9,1.7-3.3,1.7c-0.9,0-1.7-0.3-2.3-1c-1.3-1.2-1.9-2.7-1.9-4.6
				c0-1.2,0.2-2.4,0.7-3.5c0.5-1.1,1.2-2.1,2.1-3c0.9-0.8,1.8-1.4,2.6-1.7c0.8-0.3,1.6-0.5,2.3-0.5h0.5v0.4
				c-0.9,0.1-1.6,0.2-2.1,0.5s-1.1,0.7-1.7,1.2c-0.5,0.6-1,1.2-1.3,1.8c-0.4,0.6-0.7,1.4-0.9,2.4
				C554.2,518.2,555.2,517.9,556.2,517.9z M554.4,519c-0.3,0.1-0.7,0.3-1.3,0.6c-0.1,0.9-0.1,1.6-0.1,2.2c0,0.6,0.1,1.3,0.3,2.1
				c0.2,0.7,0.6,1.3,1,1.8c0.3,0.3,0.7,0.5,1.2,0.5c0.6,0,1.1-0.3,1.6-0.9c0.4-0.5,0.6-1.3,0.6-2.3c0-1.1-0.2-2.1-0.6-3
				c-0.5-0.8-1.1-1.3-2-1.3C555,518.8,554.7,518.8,554.4,519z M535.7,515c-0.5-0.6-1.2-0.8-1.9-0.8s-1.3,0.2-1.8,0.6
				c-0.5,0.4-0.9,0.9-1.2,1.7h-0.3c0.2-1.2,0.6-2.2,1.3-2.9c0.7-0.7,1.6-1,2.6-1c1.1,0,2,0.4,2.8,1.1c0.7,0.7,1.1,1.5,1.1,2.5
				c0,0.7-0.2,1.3-0.5,2c-0.5,1.1-1.3,2.2-2.4,3.4c-1.6,1.8-2.7,2.9-3.1,3.3h3.5c0.7,0,1.2,0,1.5-0.1c0.3,0,0.6-0.1,0.8-0.3
				c0.2-0.2,0.4-0.4,0.6-0.7h0.4l-1,2.6h-8V526c2.3-2.2,4-3.9,5-5.3c1-1.4,1.5-2.6,1.5-3.8C536.5,516.2,536.2,515.5,535.7,515z
				 M527,522.8v3.6h-1.6v-3.6h-5.8v-1.3l6.3-9h1.1v8.9h1.8v1.4L527,522.8L527,522.8z M533.5,538.3c-0.5,0.5-0.8,1.4-1,2.6
				c-0.2,1.2-0.3,2.4-0.3,3.5c0,1.9,0.2,3.4,0.7,4.6c0.4,1,0.9,1.5,1.7,1.5c0.3,0,0.7-0.2,1.1-0.5c0.4-0.3,0.7-0.9,0.9-1.7
				c0.3-1.1,0.5-2.8,0.5-4.8c0-1.5-0.2-2.8-0.5-3.9c-0.2-0.8-0.5-1.3-0.9-1.6c-0.3-0.2-0.6-0.3-1-0.3
				C534.3,537.7,533.9,537.8,533.5,538.3z M532.9,537.6c0.6-0.4,1.2-0.6,1.8-0.6c1,0,2,0.5,2.8,1.6c1,1.3,1.5,3.1,1.5,5.4
				c0,1.6-0.2,2.9-0.7,4c-0.4,1.1-1,1.9-1.7,2.4c-0.7,0.5-1.4,0.8-2,0.8c-1.3,0-2.4-0.8-3.2-2.3c-0.7-1.3-1.1-2.8-1.1-4.7
				c0-1.5,0.2-2.9,0.7-4C531.5,539,532.1,538.2,532.9,537.6z M527.5,539h-4l-0.9,1.8c1.8,0.3,3.2,0.9,4.2,2c0.9,0.9,1.3,2,1.3,3.2
				c0,0.7-0.1,1.3-0.4,2c-0.3,0.6-0.7,1.1-1.1,1.5c-0.5,0.4-1,0.8-1.5,1c-0.8,0.4-1.5,0.5-2.3,0.5s-1.4-0.1-1.8-0.4
				c-0.4-0.3-0.6-0.6-0.6-1c0-0.2,0.1-0.3,0.2-0.5c0.2-0.1,0.4-0.2,0.6-0.2s0.3,0,0.4,0.1c0.1,0,0.4,0.2,0.7,0.4
				c0.5,0.3,1,0.5,1.5,0.5c0.8,0,1.5-0.3,2-0.8c0.6-0.6,0.9-1.3,0.9-2.2c0-0.8-0.3-1.5-0.8-2.3c-0.5-0.7-1.2-1.3-2.2-1.7
				c-0.7-0.3-1.7-0.5-3-0.5l2.6-5.3h4.8L527.5,539z M545,537c1,0,2,0.5,2.8,1.6c1,1.3,1.6,3.1,1.6,5.4c0,1.6-0.2,2.9-0.7,4
				c-0.4,1.1-1,1.9-1.7,2.4s-1.4,0.8-2,0.8c-1.3,0-2.4-0.8-3.2-2.3c-0.7-1.3-1.1-2.8-1.1-4.7c0-1.5,0.2-2.9,0.7-4
				c0.5-1.1,1.1-1.9,1.9-2.5C543.8,537.2,544.4,537,545,537z M545,537.7c-0.5,0-0.9,0.2-1.2,0.6c-0.5,0.5-0.8,1.4-1,2.6
				c-0.2,1.2-0.3,2.4-0.3,3.5c0,1.9,0.2,3.4,0.7,4.6c0.4,1,0.9,1.5,1.7,1.5c0.3,0,0.7-0.2,1.1-0.5s0.7-0.9,0.9-1.7
				c0.3-1.1,0.5-2.8,0.5-4.8c0-1.5-0.2-2.8-0.5-3.9c-0.2-0.8-0.5-1.3-0.9-1.6C545.8,537.8,545.4,537.7,545,537.7z M513.3,514.8
				c-0.1-0.2-0.1-0.3-0.3-0.4c-0.1-0.1-0.3-0.2-0.4-0.2c-0.3,0-0.6,0.1-1.1,0.3l-0.1-0.3l3.3-1.7h0.3V524c0,0.8,0,1.3,0.1,1.5
				c0.1,0.2,0.2,0.3,0.4,0.4c0.2,0.1,0.6,0.2,1.3,0.2v0.4h-5.1v-0.4c0.6,0,1-0.1,1.3-0.2c0.2-0.1,0.3-0.2,0.3-0.4
				c0.1-0.2,0.2-0.7,0.2-1.5v-7.3C513.5,515.8,513.4,515.1,513.3,514.8z M525.4,521.5v-6.7l-4.8,6.7H525.4z M515,542.3
				c0.9,0,1.7,0.4,2.4,1.1c0.7,0.8,1,1.7,1,2.9c0,1.1-0.3,2.2-1,3.1c-0.8,1.1-1.9,1.7-3.3,1.7c-0.9,0-1.7-0.3-2.4-1
				c-1.3-1.2-1.9-2.7-1.9-4.6c0-1.2,0.2-2.4,0.7-3.5s1.2-2.1,2.1-3c0.9-0.8,1.8-1.4,2.6-1.7s1.6-0.5,2.3-0.5h0.5v0.4
				c-0.9,0.1-1.6,0.2-2.2,0.5c-0.5,0.3-1.1,0.7-1.6,1.2c-0.5,0.6-1,1.2-1.3,1.9c-0.4,0.6-0.7,1.4-0.9,2.3
				C513.1,542.6,514.1,542.3,515,542.3z M512,544c-0.1,0.9-0.2,1.6-0.2,2.2c0,0.6,0.1,1.3,0.4,2.1c0.2,0.7,0.6,1.3,1,1.8
				c0.3,0.3,0.7,0.5,1.2,0.5c0.6,0,1.1-0.3,1.6-0.8c0.4-0.5,0.7-1.3,0.7-2.4c0-1.1-0.2-2.1-0.7-3c-0.5-0.8-1.1-1.3-2-1.3
				c-0.2,0-0.5,0.1-0.8,0.2C513,543.4,512.6,543.6,512,544z"/>
		</g>
	</g>
</g>
</svg>
