<?xml version="1.0" encoding="utf-8"?>
<!-- Generator: Adobe Illustrator 16.0.0, SVG Export Plug-In . SVG Version: 6.00 Build 0)  -->
<!DOCTYPE svg PUBLIC "-//W3C//DTD SVG 1.1//EN" "http://www.w3.org/Graphics/SVG/1.1/DTD/svg11.dtd">
<svg version="1.1" xmlns="http://www.w3.org/2000/svg" xmlns:xlink="http://www.w3.org/1999/xlink" x="0px" y="0px" width="700px"
	 height="700px" viewBox="0 0 700 700" enable-background="new 0 0 700 700" xml:space="preserve">
<g id="Layer_3">
	<g>
		<g>
			
				<radialGradient id="SVGID_1_" cx="357" cy="619.4492" r="387.8864" gradientTransform="matrix(1 0 0 0.9302 0 43.2109)" gradientUnits="userSpaceOnUse">
				<stop  offset="0" style="stop-color:#FFFFFF"/>
				<stop  offset="0.6" style="stop-color:#FEFEFE;stop-opacity:0.7804"/>
				<stop  offset="0.7804" style="stop-color:#FCFCFC;stop-opacity:0.2706"/>
				<stop  offset="1" style="stop-color:#FAFAFA;stop-opacity:0"/>
			</radialGradient>
			<path fill-rule="evenodd" clip-rule="evenodd" fill="url(#SVGID_1_)" d="M721.5,619.5c0,0.2-0.1,0.4-0.3,0.5
				c-0.1,0.1-0.3,0.1-0.4,0.1H-6.9c-0.2,0-0.3,0-0.4-0.1c-0.2-0.1-0.3-0.3-0.3-0.5c0-0.1,0.1-0.3,0.3-0.4c0.1-0.2,0.2-0.3,0.4-0.3
				h727.8c0.1,0,0.3,0.1,0.4,0.3C721.5,619.2,721.5,619.3,721.5,619.5z"/>
			<g>
				<line fill-rule="evenodd" clip-rule="evenodd" fill="none" x1="31.6" y1="620" x2="645.8" y2="620"/>
			</g>
			<g>
				
					<radialGradient id="SVGID_2_" cx="349" cy="700" r="426.6125" gradientTransform="matrix(1 0 0 1.6231 0 -436.1951)" gradientUnits="userSpaceOnUse">
					<stop  offset="0" style="stop-color:#709589"/>
					<stop  offset="0.7451" style="stop-color:#415452"/>
					<stop  offset="1" style="stop-color:#395257"/>
					<stop  offset="1" style="stop-color:#25363A"/>
				</radialGradient>
				<rect x="-7.4" y="-4.1" fill-rule="evenodd" clip-rule="evenodd" fill="url(#SVGID_2_)" width="727.8" height="722.7"/>
			</g>
		</g>
	</g>
</g>
<g id="Layer_2">
	<g>
		<g>
			<path fill-rule="evenodd" clip-rule="evenodd" fill="#CCCCCC" fill-opacity="0.4588" d="M571.9,76.3c15.9,0.8,23.8,9.6,23.8,26.3
				V612c0,17.6-8.8,26.4-26.4,26.4H216c-17.6,0-26.4-8.8-26.4-26.4V102.6c0-16.7,7.9-25.5,23.8-26.3h36.3v-0.1h1.7v17.4h47.1V76.2
				h12.3v17.4h47.1V76.2h12.3v17.4h47.1V76.2h12.3v17.4h47.1V76.2h12.4v17.4h47.1V76.3H571.9z"/>
		</g>
		<g>
			<path fill-rule="evenodd" clip-rule="evenodd" fill="#999999" fill-opacity="0.6784" d="M571.9,76.3c15.9,0.8,23.8,9.6,23.8,26.3
				V612c0,17.6-8.8,26.4-26.4,26.4H216c-17.6,0-26.4-8.8-26.4-26.4V102.6c0-16.7,7.9-25.5,23.8-26.3l38-0.1v17.4h47.1V76.2h12.3
				v17.4h47.1V76.2h12.3v17.4h47.1V76.2h12.3v17.4h47.1V76.2h12.4v17.4h47.1V76.3H571.9z"/>
		</g>
		<g>
			
				<linearGradient id="SVGID_3_" gradientUnits="userSpaceOnUse" x1="154.001" y1="421.6738" x2="154.0385" y2="411.1486" gradientTransform="matrix(1.3184 0 0 1.3184 189.5997 76.2003)">
				<stop  offset="0" style="stop-color:#677B8F;stop-opacity:0.2235"/>
				<stop  offset="1" style="stop-color:#75869C;stop-opacity:0"/>
			</linearGradient>
			<path fill-rule="evenodd" clip-rule="evenodd" fill="url(#SVGID_3_)" d="M589.9,631c0,0-0.1,0.1-0.1,0.1l-13.1,6.7
				c-0.4,0-0.8,0.1-1.2,0.2c-0.1,0-0.3,0-0.4,0.1c-0.2,0-0.4,0-0.7,0.1c-0.1,0-0.2,0-0.3,0c-0.2,0-0.4,0.1-0.5,0.1
				c-0.1,0-0.2,0-0.3,0.1c-0.1,0-0.2,0-0.3,0H212.4c-0.1,0-0.2,0-0.3,0c-1.8-0.2-3.5-0.4-5-0.8c-1.6-0.4-3-0.8-4.4-1.3
				c-0.1,0-0.2-0.1-0.2-0.1c-2.4-1-4.5-2.4-6.2-4l-0.1-0.1c-2.3-2.2-4-5.1-5.1-8.4h402.8C593.1,626.4,591.7,628.9,589.9,631z"/>
			<g>
				
					<linearGradient id="SVGID_4_" gradientUnits="userSpaceOnUse" x1="-4.4443" y1="-117.8232" x2="11.0066" y2="-117.8232" gradientTransform="matrix(-0.9237 0.9408 -1.8477 -1.022689e-006 189.6023 76.2003)">
					<stop  offset="0" style="stop-color:#677B8F;stop-opacity:0.3922"/>
					<stop  offset="1" style="stop-color:#75869C;stop-opacity:0"/>
				</linearGradient>
				<path fill-rule="evenodd" clip-rule="evenodd" fill="url(#SVGID_4_)" d="M594.7,93.4c0,0.1,0.1,0.2,0.1,0.3
					c-89.6,1.9-224.3,1.9-404.2,0c2-8.6,7.2-14,15.6-16.3h0.1l0.1-0.1c0,0,0.1-0.1,0.2-0.1c0.1,0,0.2-0.1,0.3-0.1
					c0.1,0,0.2-0.1,0.3-0.1c0.1,0,0.2-0.1,0.3-0.1c0.1,0,0.2-0.1,0.3-0.1c0.1,0,0.2-0.1,0.3-0.1c0.1,0,0.3-0.1,0.5-0.1
					c0,0,0,0,0.1,0c0,0,0.1-0.1,0.1-0.1h0.1c0.1,0,0.2-0.1,0.3-0.1c0.1,0,0.2,0,0.3,0c0.1,0,0.2-0.1,0.3-0.1s0.2,0,0.3,0h0.1
					c0.1,0,0.2-0.1,0.3-0.1h0.1c0.1,0,0.2,0,0.3,0l0.7-0.1c0.8-0.1,1.6-0.2,2.4-0.2l38-0.1v17.4h47.1V76.2h12.3v17.4h47.1V76.2h12.3
					v17.4h47.1V76.2h12.3v17.4h47.1V76.2h12.4v17.4h47.1V76.3h35.9c0.8,0,1.6,0.1,2.4,0.2c3.6,0.4,6.8,1.3,9.5,2.6
					c0.8,0.4,1.6,0.9,2.4,1.4C590.5,83.3,593.3,87.6,594.7,93.4z"/>
			</g>
		</g>
		<g>
			<g>
				
					<linearGradient id="SVGID_5_" gradientUnits="userSpaceOnUse" x1="-308.8911" y1="-213.4492" x2="-298.1161" y2="-213.4492" gradientTransform="matrix(-1.3184 0 7.953858e-003 -1.3184 189.6006 76.201)">
					<stop  offset="0" style="stop-color:#75869C;stop-opacity:0.2706"/>
					<stop  offset="1" style="stop-color:#75869C;stop-opacity:0"/>
				</linearGradient>
				<path fill-rule="evenodd" clip-rule="evenodd" fill="url(#SVGID_5_)" d="M594.8,93.7c0.6,2.7,0.9,5.6,0.9,8.9V612
					c0,4.4-0.5,8.2-1.6,11.5c-2.1,6.3-6.2,10.6-12.3,12.9l3.3-553.7c-0.9-1.6-1.5-2.9-1.8-3.8C589.3,81.6,593.1,86.5,594.8,93.7z"/>
				
					<linearGradient id="SVGID_6_" gradientUnits="userSpaceOnUse" x1="2.9253" y1="212.6841" x2="7.7003" y2="212.6985" gradientTransform="matrix(1.3184 0 0 1.3184 189.5997 76.2003)">
					<stop  offset="0" style="stop-color:#75869C;stop-opacity:0.2627"/>
					<stop  offset="1" style="stop-color:#75869C;stop-opacity:0"/>
				</linearGradient>
				<path fill-rule="evenodd" clip-rule="evenodd" fill="url(#SVGID_6_)" d="M213.4,76.3c0.8,0,1.7-0.1,2.6-0.1h0.7
					c-2.1,3.6-4.6,7.7-7.5,12.1l-3.3,548.9c-7.4-2-12.2-6.6-14.6-13.6c-1.1-3.3-1.6-7.1-1.6-11.5V102.6c0-3.3,0.3-6.2,0.9-8.9
					c2.3-10.2,9.1-15.9,20.4-17.2C211.7,76.4,212.6,76.3,213.4,76.3z"/>
			</g>
		</g>
		<g>
			<g>
				<g>
					
						<radialGradient id="SVGID_7_" cx="245.6499" cy="39.6001" r="32.3" gradientTransform="matrix(1.3184 0 0 1.3184 189.5997 76.2003)" gradientUnits="userSpaceOnUse">
						<stop  offset="7.843138e-003" style="stop-color:#FFFFFF;stop-opacity:0"/>
						<stop  offset="0.5098" style="stop-color:#FFFFFF"/>
						<stop  offset="1" style="stop-color:#FFFFFF;stop-opacity:0"/>
					</radialGradient>
					<path fill-rule="evenodd" clip-rule="evenodd" fill="url(#SVGID_7_)" d="M534.6,161.6V94.9h-44.4v66.7H534.6z M535.9,93.6V163
						h-47.1V93.6H535.9z"/>
					
						<linearGradient id="SVGID_8_" gradientUnits="userSpaceOnUse" x1="245.1938" y1="-1.0928" x2="244.673" y2="60.4823" gradientTransform="matrix(1.3184 0 0 1.3184 189.5997 76.2003)">
						<stop  offset="0" style="stop-color:#3D4054"/>
						<stop  offset="1" style="stop-color:#F2F2F2;stop-opacity:0.3529"/>
					</linearGradient>
					<rect x="490.2" y="94.9" fill-rule="evenodd" clip-rule="evenodd" fill="url(#SVGID_8_)" width="44.4" height="66.7"/>
				</g>
			</g>
			<g>
				<g>
					
						<radialGradient id="SVGID_9_" cx="200.5498" cy="39.6001" r="32.3" gradientTransform="matrix(1.3184 0 0 1.3184 189.5997 76.2003)" gradientUnits="userSpaceOnUse">
						<stop  offset="7.843138e-003" style="stop-color:#FFFFFF;stop-opacity:0"/>
						<stop  offset="0.5098" style="stop-color:#FFFFFF"/>
						<stop  offset="1" style="stop-color:#FFFFFF;stop-opacity:0"/>
					</radialGradient>
					<path fill-rule="evenodd" clip-rule="evenodd" fill="url(#SVGID_9_)" d="M430.7,94.9v66.7h44.4V94.9H430.7z M429.4,163V93.6
						h47.1V163H429.4z"/>
					
						<linearGradient id="SVGID_10_" gradientUnits="userSpaceOnUse" x1="200.0933" y1="-1.0928" x2="199.5724" y2="60.4823" gradientTransform="matrix(1.3184 0 0 1.3184 189.5997 76.2003)">
						<stop  offset="0" style="stop-color:#3D4054"/>
						<stop  offset="1" style="stop-color:#F2F2F2;stop-opacity:0.3529"/>
					</linearGradient>
					<rect x="430.7" y="94.9" fill-rule="evenodd" clip-rule="evenodd" fill="url(#SVGID_10_)" width="44.4" height="66.7"/>
				</g>
			</g>
			<g>
				<g>
					
						<radialGradient id="SVGID_11_" cx="155.5498" cy="39.6001" r="32.3" gradientTransform="matrix(1.3184 0 0 1.3184 189.5997 76.2003)" gradientUnits="userSpaceOnUse">
						<stop  offset="7.843138e-003" style="stop-color:#FFFFFF;stop-opacity:0"/>
						<stop  offset="0.5098" style="stop-color:#FFFFFF"/>
						<stop  offset="1" style="stop-color:#FFFFFF;stop-opacity:0"/>
					</radialGradient>
					<path fill-rule="evenodd" clip-rule="evenodd" fill="url(#SVGID_11_)" d="M415.8,161.6V94.9h-44.4v66.7H415.8z M417.2,93.6V163
						h-47.1V93.6H417.2z"/>
					
						<linearGradient id="SVGID_12_" gradientUnits="userSpaceOnUse" x1="155.0933" y1="-1.0928" x2="154.5724" y2="60.4823" gradientTransform="matrix(1.3184 0 0 1.3184 189.5997 76.2003)">
						<stop  offset="0" style="stop-color:#3D4054"/>
						<stop  offset="1" style="stop-color:#F2F2F2;stop-opacity:0.3529"/>
					</linearGradient>
					<rect x="371.4" y="94.9" fill-rule="evenodd" clip-rule="evenodd" fill="url(#SVGID_12_)" width="44.4" height="66.7"/>
				</g>
			</g>
			<g>
				<g>
					
						<radialGradient id="SVGID_13_" cx="110.5498" cy="39.6001" r="32.3" gradientTransform="matrix(1.3184 0 0 1.3184 189.5997 76.2003)" gradientUnits="userSpaceOnUse">
						<stop  offset="7.843138e-003" style="stop-color:#FFFFFF;stop-opacity:0"/>
						<stop  offset="0.5098" style="stop-color:#FFFFFF"/>
						<stop  offset="1" style="stop-color:#FFFFFF;stop-opacity:0"/>
					</radialGradient>
					<path fill-rule="evenodd" clip-rule="evenodd" fill="url(#SVGID_13_)" d="M312.1,94.9v66.7h44.4V94.9H312.1z M310.8,163V93.6
						h47.1V163H310.8z"/>
					
						<linearGradient id="SVGID_14_" gradientUnits="userSpaceOnUse" x1="110.0938" y1="-1.0928" x2="109.5729" y2="60.4823" gradientTransform="matrix(1.3184 0 0 1.3184 189.5997 76.2003)">
						<stop  offset="0" style="stop-color:#3D4054"/>
						<stop  offset="1" style="stop-color:#F2F2F2;stop-opacity:0.3529"/>
					</linearGradient>
					<rect x="312.1" y="94.9" fill-rule="evenodd" clip-rule="evenodd" fill="url(#SVGID_14_)" width="44.4" height="66.7"/>
				</g>
			</g>
			<g>
				<g>
					
						<radialGradient id="SVGID_15_" cx="65.5498" cy="39.6001" r="32.3" gradientTransform="matrix(1.3184 0 0 1.3184 189.5997 76.2003)" gradientUnits="userSpaceOnUse">
						<stop  offset="7.843138e-003" style="stop-color:#FFFFFF;stop-opacity:0"/>
						<stop  offset="0.5098" style="stop-color:#FFFFFF"/>
						<stop  offset="1" style="stop-color:#FFFFFF;stop-opacity:0"/>
					</radialGradient>
					<path fill-rule="evenodd" clip-rule="evenodd" fill="url(#SVGID_15_)" d="M297.2,161.6V94.9h-44.4v66.7H297.2z M298.5,93.6V163
						h-47.1V93.6H298.5z"/>
					
						<linearGradient id="SVGID_16_" gradientUnits="userSpaceOnUse" x1="65.0938" y1="-1.0928" x2="64.5729" y2="60.4823" gradientTransform="matrix(1.3184 0 0 1.3184 189.5997 76.2003)">
						<stop  offset="0" style="stop-color:#3D4054"/>
						<stop  offset="1" style="stop-color:#F2F2F2;stop-opacity:0.3529"/>
					</linearGradient>
					<rect x="252.8" y="94.9" fill-rule="evenodd" clip-rule="evenodd" fill="url(#SVGID_16_)" width="44.4" height="66.7"/>
				</g>
			</g>
		</g>
		
			<radialGradient id="SVGID_17_" cx="300.25" cy="421.4502" r="32.45" gradientTransform="matrix(1.3184 0 0 1.3184 189.5997 76.2003)" gradientUnits="userSpaceOnUse">
			<stop  offset="0" style="stop-color:#FFFFFF"/>
			<stop  offset="0.2118" style="stop-color:#FFFFFF;stop-opacity:0.498"/>
			<stop  offset="0.4549" style="stop-color:#FFFFFF;stop-opacity:0.2588"/>
			<stop  offset="0.7765" style="stop-color:#FFFFFF;stop-opacity:6.666667e-002"/>
			<stop  offset="1" style="stop-color:#FFFFFF;stop-opacity:0"/>
		</radialGradient>
		<path fill-rule="evenodd" clip-rule="evenodd" fill="url(#SVGID_17_)" d="M595.7,590.9V612c0,17.6-8.8,26.4-26.4,26.4h-25.4
			c-0.3-2.1-0.5-4.3-0.5-6.5c0-11.6,4.1-21.5,12.3-29.7c8.2-8.2,18.1-12.3,29.7-12.3C589,589.8,592.4,590.2,595.7,590.9z"/>
		
			<radialGradient id="SVGID_18_" cx="160.3999" cy="1.3501" r="400.875" gradientTransform="matrix(1.3184 0 0 3.062748e-002 189.5997 77.939)" gradientUnits="userSpaceOnUse">
			<stop  offset="0" style="stop-color:#FFFFFF"/>
			<stop  offset="0.2118" style="stop-color:#FFFFFF;stop-opacity:0.498"/>
			<stop  offset="0.4549" style="stop-color:#FFFFFF;stop-opacity:0.2588"/>
			<stop  offset="0.7765" style="stop-color:#FFFFFF;stop-opacity:6.666667e-002"/>
			<stop  offset="1" style="stop-color:#FFFFFF;stop-opacity:0"/>
		</radialGradient>
		<path fill-rule="evenodd" clip-rule="evenodd" fill="url(#SVGID_18_)" d="M251.4,76.2v13.4c-20.3-0.1-40.2-0.3-59.4-0.5
			c3.4-8,10.6-12.3,21.4-12.8L251.4,76.2z M310.8,76.2v13.7c-4.1,0-8.2,0-12.3,0V76.2H310.8z M370.1,76.2V90c-4.1,0-8.2,0-12.3,0
			V76.2H370.1z M429.4,76.2V90c-4.1,0-8.2,0-12.3,0V76.2H429.4z M488.9,76.2v13.7c-4.1,0-8.2,0-12.4,0V76.2H488.9z M571.9,76.3
			c10.9,0.6,18.1,4.9,21.5,13c-18.7,0.2-37.8,0.3-57.4,0.4V76.3H571.9z"/>
		
			<radialGradient id="SVGID_19_" cx="5.2002" cy="207.5498" r="5.2625" gradientTransform="matrix(1.3184 0 0 61.4396 189.5997 -12401.9473)" gradientUnits="userSpaceOnUse">
			<stop  offset="0" style="stop-color:#FFFFFF"/>
			<stop  offset="0.2118" style="stop-color:#FFFFFF;stop-opacity:0.498"/>
			<stop  offset="0.4549" style="stop-color:#FFFFFF;stop-opacity:0.2588"/>
			<stop  offset="0.7765" style="stop-color:#FFFFFF;stop-opacity:6.666667e-002"/>
			<stop  offset="1" style="stop-color:#FFFFFF;stop-opacity:0"/>
		</radialGradient>
		<path fill-rule="evenodd" clip-rule="evenodd" fill="url(#SVGID_19_)" d="M192,89.1c1.7-4.1,4.5-7.2,8.1-9.3
			c0.4,12.4,0.8,27.2,1.2,44.4c1.3,62.3,2,137.6,2,225.7c0,88.1-0.7,163.4-2,225.7c-0.5,24.4-1.1,44.1-1.7,58.9
			c-6.7-4.2-10-11.6-10-22.5V102.6C189.6,97.3,190.4,92.8,192,89.1z"/>
		
			<radialGradient id="SVGID_20_" cx="307.2998" cy="207.5498" r="5.2625" gradientTransform="matrix(1.3184 0 0 61.4396 189.5997 -12401.9473)" gradientUnits="userSpaceOnUse">
			<stop  offset="0" style="stop-color:#FFFFFF"/>
			<stop  offset="0.2118" style="stop-color:#FFFFFF;stop-opacity:0.498"/>
			<stop  offset="0.4549" style="stop-color:#FFFFFF;stop-opacity:0.2588"/>
			<stop  offset="0.7765" style="stop-color:#FFFFFF;stop-opacity:6.666667e-002"/>
			<stop  offset="1" style="stop-color:#FFFFFF;stop-opacity:0"/>
		</radialGradient>
		<path fill-rule="evenodd" clip-rule="evenodd" fill="url(#SVGID_20_)" d="M591.8,86.2c0.6,0.9,1.1,1.9,1.5,3
			c1.5,3.7,2.3,8.1,2.3,13.3v488.4V612c0,6.7-1.3,12.2-3.9,16.3c-2.6-4.2-3.9-9.6-3.9-16.3V102.6c0-5.3,0.8-9.8,2.4-13.4
			C590.8,88.1,591.3,87.1,591.8,86.2z"/>
		
			<radialGradient id="SVGID_21_" cx="86" cy="425.9502" r="338.75" gradientTransform="matrix(1.3184 0 0 3.468759e-002 189.5997 623.0066)" gradientUnits="userSpaceOnUse">
			<stop  offset="0" style="stop-color:#FFFFFF"/>
			<stop  offset="0.2118" style="stop-color:#FFFFFF;stop-opacity:0.498"/>
			<stop  offset="0.4549" style="stop-color:#FFFFFF;stop-opacity:0.2588"/>
			<stop  offset="0.7765" style="stop-color:#FFFFFF;stop-opacity:6.666667e-002"/>
			<stop  offset="1" style="stop-color:#FFFFFF;stop-opacity:0"/>
		</radialGradient>
		<path fill-rule="evenodd" clip-rule="evenodd" fill="url(#SVGID_21_)" d="M591.5,628.9c-4.2,6.3-11.6,9.5-22.1,9.5h-25.4H216
			c-11.8,0-19.7-4-23.5-11.9c35.1-0.2,71.9-0.3,110.5-0.3C413.9,626.1,510.1,627,591.5,628.9z"/>
		
			<radialGradient id="SVGID_22_" cx="299.25" cy="7.9502" r="5.5403" gradientTransform="matrix(0.8833 -0.9788 1.7934 1.6185 305.5519 366.7157)" gradientUnits="userSpaceOnUse">
			<stop  offset="0" style="stop-color:#FFFFFF"/>
			<stop  offset="0.2118" style="stop-color:#FFFFFF;stop-opacity:0.498"/>
			<stop  offset="0.4549" style="stop-color:#FFFFFF;stop-opacity:0.2588"/>
			<stop  offset="0.7765" style="stop-color:#FFFFFF;stop-opacity:6.666667e-002"/>
			<stop  offset="1" style="stop-color:#FFFFFF;stop-opacity:0"/>
		</radialGradient>
		<path fill-rule="evenodd" clip-rule="evenodd" fill="url(#SVGID_22_)" d="M594.8,93.9c-0.2,0.6-0.5,1.1-0.9,1.6
			c-1.3,1.5-3.4,1.8-6.3,1.2c-2.8-0.7-5.6-2.2-8.2-4.6c-2.7-2.4-4.5-5-5.5-7.8s-0.8-4.9,0.5-6.3c0.5-0.5,1.1-0.9,1.8-1.2
			c7.2,1.2,12.3,4.3,15.6,9.5c0.6,0.9,1.1,1.9,1.5,3C594,90.6,594.4,92.2,594.8,93.9z"/>
	</g>
</g>
</svg>
